<svg xmlns="http://www.w3.org/2000/svg" width="145.873" height="70.115" viewBox="0 0 145.873 70.115">
  <g id="Group_51" data-name="Group 51" transform="translate(-7.99 -5.611)">
    <g id="Group_45" data-name="Group 45" transform="translate(66.952 5.611)">
      <g id="Group_44" data-name="Group 44" transform="translate(0 0)">
        <path id="Path_65" data-name="Path 65" d="M217.379,24.871c-1.273.049-2.616.1-4.08.246a8.539,8.539,0,0,1-10.66,2.562c-.162-.08-.321-.167-.477-.257a8.553,8.553,0,1,1,10.949-12.756L217.673,11a14.408,14.408,0,1,0,2.373,13.727C219.185,24.8,218.3,24.835,217.379,24.871Z" transform="translate(-192.03 -5.611)" fill="#00112f"/>
        <g id="Group_43" data-name="Group 43" transform="translate(13.129 11.765)">
          <path id="Path_66" data-name="Path 66" d="M233.011,50.43c7.7-10.927,13.665-4.551,24.654-8.1C250.929,51.9,246.23,46.166,233.011,50.43Z" transform="translate(-233.011 -42.334)" fill="#8b5b00"/>
        </g>
      </g>
    </g>
    <g id="Group_46" data-name="Group 46" transform="translate(7.99 51.193)">
      <path id="Path_67" data-name="Path 67" d="M16.37,149.34a.127.127,0,0,1-.069-.025,5.115,5.115,0,0,0-2.864-.872,5.1,5.1,0,1,0,0,10.181,5.111,5.111,0,0,0,2.864-.872.129.129,0,0,1,.07-.025.1.1,0,0,1,.08.047l.3.51v-2.241l-.451.753a3.729,3.729,0,0,1-2.859,1.218,4.48,4.48,0,1,1-.014-8.961l.094-.012a3.78,3.78,0,0,1,2.791,1.242l.439.749v-2.249l-.3.516A.094.094,0,0,1,16.37,149.34Z" transform="translate(-7.99 -148.266)" fill="#00112f"/>
      <path id="Path_68" data-name="Path 68" d="M52.43,148.733l.228-.086-.037-.2H50.3l-.037.2.226.085a.744.744,0,0,1,.474.7v3.583H44.5v-3.583a.744.744,0,0,1,.473-.7l.228-.086-.037-.2H42.837l-.037.2.227.085a.745.745,0,0,1,.474.7v8.189a.745.745,0,0,1-.472.7l-.228.086.037.2h2.321l.037-.2-.226-.085a.745.745,0,0,1-.474-.7v-4h6.468v4a.744.744,0,0,1-.473.7l-.228.086.037.2h2.322l.037-.2-.227-.085a.746.746,0,0,1-.474-.7v-8.189A.744.744,0,0,1,52.43,148.733Z" transform="translate(-31.648 -148.266)" fill="#00112f"/>
      <path id="Path_69" data-name="Path 69" d="M88.384,157.371a1.188,1.188,0,0,1-.981.523H83.691v-4.417h2.273a.756.756,0,0,1,.686.434l.086.2.2-.042v-1.709l-.2-.042-.084.2a.758.758,0,0,1-.688.438H83.691v-4.018h3.626a.727.727,0,0,1,.647.385l.213.4.2-.057-.092-1.352H82.048l-.037.2.226.085a.745.745,0,0,1,.474.7v8.189a.745.745,0,0,1-.473.7l-.227.086.037.2h6.489l.477-1.744-.192-.083Z" transform="translate(-58.297 -148.175)" fill="#00112f"/>
      <path id="Path_70" data-name="Path 70" d="M117.793,157.431a1.188,1.188,0,0,1-.981.523H113.1v-8.567a.745.745,0,0,1,.473-.7l.228-.086-.037-.2h-2.321l-.037.2.227.085a.745.745,0,0,1,.474.7v8.189a.744.744,0,0,1-.473.7l-.228.086.037.2h6.489l.477-1.744-.192-.083Z" transform="translate(-78.274 -148.235)" fill="#00112f"/>
      <path id="Path_71" data-name="Path 71" d="M150.719,157.576l-.014-.244v-7.945a.745.745,0,0,1,.473-.7l.228-.086-.037-.2H149.66l-3.548,8.269-3.547-8.269h-1.722l-.045.2.242.114a.755.755,0,0,1,.438.673v8.189a.757.757,0,0,1-.438.674l-.242.114.045.2h1.88l.045-.2-.242-.113a.758.758,0,0,1-.438-.674v-7.759l3.825,8.925,3.811-8.9v7.731a.745.745,0,0,1-.473.7l-.228.086.037.2h2.321l.037-.2-.227-.086A.744.744,0,0,1,150.719,157.576Z" transform="translate(-98.25 -148.235)" fill="#00112f"/>
      <path id="Path_72" data-name="Path 72" d="M186.186,152.722c-.13-.069-.261-.138-.392-.209l-.084-.022c-.191-.1-.391-.193-.592-.289-.985-.466-2-.948-2-1.989,0-.873,1.008-1.532,2.344-1.532a2.119,2.119,0,0,1,2.032.861l.38.614v-2.219l-.324.541c-.017.029-.045.045-.111.045h-.025a4.788,4.788,0,0,0-1.939-.437c-2,0-3.338,1.05-3.338,2.612,0,1.2,1.233,1.843,2.426,2.467.166.087.332.173.493.261l.373.195c1.035.537,2.106,1.092,2.106,1.933,0,1.371-1.337,2.088-2.657,2.088a2.879,2.879,0,0,1-2.487-1.088l-.51-.858v2.215l.3-.465a.1.1,0,0,1,.094-.049.133.133,0,0,1,.076.019,3.8,3.8,0,0,0,2.53.836c2.056,0,3.666-1.185,3.666-2.7C188.54,153.965,187.4,153.361,186.186,152.722Z" transform="translate(-126.169 -147.922)" fill="#00112f"/>
      <path id="Path_73" data-name="Path 73" d="M210,148.4l-.037.2.227.085a.745.745,0,0,1,.474.7v8.189a.744.744,0,0,1-.473.7l-.228.086.037.2h2.321l.037-.2-.227-.086a.745.745,0,0,1-.474-.7v-4.039h2.273a.756.756,0,0,1,.686.434l.085.2.2-.042v-1.709l-.2-.042-.083.2a.758.758,0,0,1-.688.438h-2.273v-4.018h3.626a.727.727,0,0,1,.647.385l.213.4.2-.059-.107-1.322Z" transform="translate(-145.253 -148.235)" fill="#00112f"/>
      <path id="Path_74" data-name="Path 74" d="M240.913,148.4c-2.555,0-5.3,1.593-5.3,5.091s2.749,5.09,5.3,5.09,5.3-1.593,5.3-5.09S243.468,148.4,240.913,148.4Zm0,9.571a4.468,4.468,0,1,1,4.338-4.466A4.265,4.265,0,0,1,240.913,157.969Z" transform="translate(-162.686 -148.235)" fill="#00112f"/>
      <path id="Path_75" data-name="Path 75" d="M283.92,157.653s-1.524-2.806-2.066-3.791a1.394,1.394,0,0,0-.148-.222,2.348,2.348,0,0,0,1.942-2.56c0-1.86-1.129-2.726-3.552-2.726h-3.575l-.037.2.226.085a.746.746,0,0,1,.474.7v8.189a.744.744,0,0,1-.473.7l-.228.085.037.2h2.321l.037-.2-.226-.085a.744.744,0,0,1-.474-.7v-3.726h2.187a.629.629,0,0,1,.548.316l2.408,4.4h1.558l.03-.207-.375-.111A1.2,1.2,0,0,1,283.92,157.653Zm-3.69-4.457v-.014h-2.051v-4.218h1.945c1.286,0,2.6.251,2.6,2.116C282.725,152.894,281.481,153.181,280.229,153.2Z" transform="translate(-190.466 -148.205)" fill="#00112f"/>
      <path id="Path_76" data-name="Path 76" d="M315.441,148.354l-.106.014H311.2l-.037.2.227.086a.744.744,0,0,1,.474.7v8.189a.744.744,0,0,1-.473.7l-.228.086.037.2h4.244c3.16,0,5.047-1.9,5.047-5.091C320.489,150.209,318.649,148.354,315.441,148.354Zm0,9.556-.106.014h-2.509v-8.946h2.615c2.594,0,4.082,1.628,4.082,4.466S318.035,157.91,315.441,157.91Z" transform="translate(-214.032 -148.205)" fill="#00112f"/>
      <path id="Path_77" data-name="Path 77" d="M375.387,154.853l-.04.2.227.085a.744.744,0,0,1,.474.7v1.51a3.784,3.784,0,0,1-2.344.677,4.466,4.466,0,1,1-.014-8.932,3.828,3.828,0,0,1,2.871,1.23l.439.748V148.83l-.3.514a.094.094,0,0,1-.076.041.128.128,0,0,1-.069-.025,5.089,5.089,0,1,0-.069,8.485.275.275,0,0,1,.124-.032.245.245,0,0,1,.209.121l.2.314V155.9a.744.744,0,0,1,.473-.7l.228-.086-.035-.2Z" transform="translate(-252.827 -148.296)" fill="#00112f"/>
      <path id="Path_78" data-name="Path 78" d="M413.3,157.289l-4.028-9.4-4,9.347a1.149,1.149,0,0,1-.587.653l-.327.157.046.2h1.88l.045-.2-.326-.156a.334.334,0,0,1-.164-.419l1.4-3.24h3.706l1.395,3.236a.319.319,0,0,1-.006.247.331.331,0,0,1-.187.172l-.385.143.036.2h2.322l.033-.206-.167-.055A1.164,1.164,0,0,1,413.3,157.289Zm-5.8-3.667,1.591-3.673,1.591,3.673Z" transform="translate(-277.368 -147.89)" fill="#00112f"/>
      <path id="Path_79" data-name="Path 79" d="M446.823,152.721c-.13-.069-.261-.138-.391-.209l-.084-.023c-.19-.1-.39-.193-.592-.288-.985-.466-2-.948-2-1.989,0-.873,1.008-1.532,2.344-1.532a2.118,2.118,0,0,1,2.032.861l.381.614v-2.219l-.324.541c-.017.029-.044.045-.111.045h-.025a4.788,4.788,0,0,0-1.939-.437c-2,0-3.338,1.05-3.338,2.612,0,1.2,1.233,1.843,2.426,2.467.166.087.332.173.493.261l.373.195c1.035.537,2.106,1.092,2.106,1.933,0,1.371-1.337,2.088-2.657,2.088a2.879,2.879,0,0,1-2.487-1.088l-.51-.858v2.214l.3-.465a.1.1,0,0,1,.095-.049.132.132,0,0,1,.076.019,3.8,3.8,0,0,0,2.53.836c2.056,0,3.666-1.185,3.666-2.7C449.179,153.964,448.035,153.361,446.823,152.721Z" transform="translate(-303.305 -147.922)" fill="#00112f"/>
    </g>
    <g id="Group_47" data-name="Group 47" transform="translate(46.561 67.287)">
      <path id="Path_80" data-name="Path 80" d="M131.818,201.963l-.31-.166-.081-.025c-.146-.076-.3-.148-.455-.222-.772-.365-1.57-.743-1.57-1.552,0-.678.787-1.19,1.831-1.19a1.655,1.655,0,0,1,1.587.671l.339.548v-1.9l-.294.493c0,.007-.016.027-.073.027h-.008a3.8,3.8,0,0,0-1.54-.347c-1.59,0-2.658.837-2.658,2.084,0,.959.98,1.471,1.928,1.967l.686.362c.812.421,1.65.856,1.65,1.508,0,1.069-1.046,1.628-2.079,1.628a2.254,2.254,0,0,1-1.947-.849l-.441-.743v1.9l.272-.429a.059.059,0,0,1,.057-.028.082.082,0,0,1,.047.011,3.024,3.024,0,0,0,2.011.664c1.636,0,2.917-.945,2.917-2.152C133.688,202.951,132.738,202.449,131.818,201.963Z" transform="translate(-128.383 -198.125)" fill="#8b5b00"/>
      <path id="Path_81" data-name="Path 81" d="M160.612,205.76a.917.917,0,0,1-.757.4h-2.911v-3.448h1.774a.577.577,0,0,1,.523.33l.068.157.2-.041v-1.35l-.2-.041-.066.154a.578.578,0,0,1-.525.334h-1.774v-3.133h2.844a.553.553,0,0,1,.493.294l.169.315.2-.056-.074-1.087h-4.946l-.037.2.179.067a.567.567,0,0,1,.361.533v6.469a.566.566,0,0,1-.359.532l-.18.068.037.2h5.142l.381-1.393-.189-.082Z" transform="translate(-146.872 -198.443)" fill="#8b5b00"/>
      <path id="Path_82" data-name="Path 82" d="M189.7,205.985s-1.2-2.217-1.633-3a1.29,1.29,0,0,0-.1-.151,1.87,1.87,0,0,0,1.519-2.034c0-1.484-.9-2.174-2.827-2.174H183.84l-.037.2.179.067a.567.567,0,0,1,.361.533V205.9a.567.567,0,0,1-.359.532l-.18.068.037.2h1.833l.037-.2-.179-.067a.568.568,0,0,1-.361-.533v-2.922h1.707a.474.474,0,0,1,.415.238L189.2,206.7h1.243l.029-.2-.294-.087A.938.938,0,0,1,189.7,205.985Zm-2.912-3.532v-.011h-1.62v-3.291h1.516c1.005,0,2.033.2,2.033,1.651C188.719,202.206,187.805,202.439,186.79,202.453Z" transform="translate(-166.048 -198.468)" fill="#8b5b00"/>
      <path id="Path_83" data-name="Path 83" d="M219.317,198.558l-.152-.066v.275h.1l.213.1a.244.244,0,0,1,.12.3l-2.548,5.91-2.546-5.894a.232.232,0,0,1,.005-.181.241.241,0,0,1,.136-.123l.3-.112-.036-.2h-1.834l-.033.2.131.044a.9.9,0,0,1,.526.529l3.2,7.468,3.18-7.429a.89.89,0,0,1,.453-.5l.259-.124-.045-.2Z" transform="translate(-185.924 -198.374)" fill="#8b5b00"/>
      <path id="Path_84" data-name="Path 84" d="M250.517,198.968l.18-.068-.037-.2h-1.834l-.037.2.178.067a.567.567,0,0,1,.361.533v6.469a.567.567,0,0,1-.36.532l-.18.068.037.2h1.834l.037-.2-.179-.067a.567.567,0,0,1-.361-.533V199.5A.566.566,0,0,1,250.517,198.968Z" transform="translate(-210.215 -198.515)" fill="#8b5b00"/>
      <path id="Path_85" data-name="Path 85" d="M272.348,199.389l0,0a4.042,4.042,0,1,0,0,6.7l-.058-.086.146.1.273.465v-1.918l-.4.658a2.924,2.924,0,0,1-2.24.952,3.518,3.518,0,1,1-.012-7.036l.088-.01a2.954,2.954,0,0,1,2.173.971l.386.657v-1.925l-.273.465Z" transform="translate(-221.741 -198.515)" fill="#8b5b00"/>
      <path id="Path_86" data-name="Path 86" d="M303.36,205.76a.918.918,0,0,1-.758.4h-2.911v-3.448h1.775a.577.577,0,0,1,.523.33l.068.157.2-.041v-1.35l-.2-.041-.066.154a.577.577,0,0,1-.524.334h-1.775v-3.133h2.843a.553.553,0,0,1,.493.294l.169.315.2-.056-.074-1.087h-4.946l-.037.2.179.067a.567.567,0,0,1,.361.533v6.469a.567.567,0,0,1-.36.532l-.18.068.037.2h5.142l.381-1.393-.189-.082Z" transform="translate(-243.888 -198.443)" fill="#8b5b00"/>
      <path id="Path_87" data-name="Path 87" d="M330.257,201.963l-.311-.166-.08-.025c-.146-.076-.3-.148-.455-.222-.772-.365-1.57-.743-1.57-1.552,0-.678.787-1.19,1.83-1.19a1.656,1.656,0,0,1,1.588.671l.339.548v-1.9l-.294.493c0,.007-.016.027-.073.027h-.007a3.8,3.8,0,0,0-1.54-.347c-1.59,0-2.658.837-2.658,2.084,0,.959.98,1.471,1.928,1.967l.686.362c.811.421,1.65.856,1.65,1.508,0,1.069-1.046,1.628-2.079,1.628a2.255,2.255,0,0,1-1.947-.849l-.441-.743v1.9l.272-.429a.059.059,0,0,1,.057-.028.082.082,0,0,1,.047.011,3.024,3.024,0,0,0,2.012.664c1.636,0,2.917-.945,2.917-2.152C332.127,202.951,331.176,202.449,330.257,201.963Z" transform="translate(-263.247 -198.125)" fill="#8b5b00"/>
    </g>
  </g>
</svg>
