<svg xmlns="http://www.w3.org/2000/svg" xmlns:xlink="http://www.w3.org/1999/xlink" width="58" height="88" viewBox="0 0 58 88">
  <defs>
    <linearGradient id="linear-gradient" x1="0.204" y1="0.959" x2="0.888" y2="0.079" gradientUnits="objectBoundingBox">
      <stop offset="0" stop-color="#344bfc"/>
      <stop offset="1" stop-color="#1f77f0"/>
    </linearGradient>
    <linearGradient id="linear-gradient-2" x1="1" y1="-0.36" x2="0.5" y2="1" xlink:href="#linear-gradient"/>
    <linearGradient id="linear-gradient-3" x1="0.077" y1="0.857" x2="1.44" y2="-1.506" xlink:href="#linear-gradient"/>
  </defs>
  <g id="Group_104" data-name="Group 104" transform="translate(-46 -63)">
    <g id="Group_10" data-name="Group 10" transform="translate(-1510.798 -2997)">
      <g id="Rectangle_49" data-name="Rectangle 49" transform="translate(1556.798 3077)" stroke="#fff" stroke-linecap="round" stroke-width="2" fill="url(#linear-gradient)">
        <rect width="58" height="63" rx="12" stroke="none"/>
        <rect x="1" y="1" width="56" height="61" rx="11" fill="none"/>
      </g>
      <path id="Path_107" data-name="Path 107" d="M8718.8,5724.766h-54.067" transform="translate(-7105.569 -2631.507)" fill="#fff" stroke="#fff" stroke-linecap="round" stroke-width="2"/>
      <path id="Path_109" data-name="Path 109" d="M8664.733,5724.766H8718.8" transform="translate(-7105.568 -2593.765)" fill="#1f77f0" stroke="#fff" stroke-linecap="round" stroke-width="2"/>
      <g id="Path_580" data-name="Path 580" transform="translate(1573.798 3060)" stroke-linecap="round" fill="url(#linear-gradient-2)">
        <path d="M 23 18 L 1 18 L 1 1 L 23 1 L 23 18 Z" stroke="none"/>
        <path d="M 2 2 L 2 17 L 22 17 L 22 2 L 2 2 M 0 0 L 24 0 L 24 19 L 0 19 L 0 0 Z" stroke="none" fill="#fff"/>
      </g>
      <g id="Rectangle_51" data-name="Rectangle 51" transform="translate(1581.798 3071)" fill="#fff" stroke="#fff" stroke-linecap="round" stroke-width="2">
        <rect width="9" height="8" stroke="none"/>
        <rect x="1" y="1" width="7" height="6" fill="none"/>
      </g>
      <g id="Path_581" data-name="Path 581" transform="translate(1569.798 3138)" stroke-linecap="round" fill="url(#linear-gradient-3)">
        <path d="M 31 9 L 1 9 L 1 1 L 31 1 L 31 9 Z" stroke="none"/>
        <path d="M 2 2 L 2 8 L 30 8 L 30 2 L 2 2 M 0 0 L 32 0 L 32 10 L 0 10 L 0 0 Z" stroke="none" fill="#fff"/>
      </g>
    </g>
  </g>
</svg>
