<svg xmlns="http://www.w3.org/2000/svg" width="51" height="79" viewBox="0 0 51 79"><defs><style>.a,.b,.d{fill:none;}.a{stroke:#1f77f0;stroke-width:2px;}.c,.e{stroke:none;}.e{fill:#1f77f0;}</style></defs><g transform="translate(-2051.66 -3068.135)"><g class="a" transform="translate(2054.66 3094.135)"><rect class="c" width="45" height="26"/><rect class="d" x="1" y="1" width="43" height="24"/></g><g class="a" transform="translate(2051.66 3118.135)"><rect class="c" width="51" height="13" rx="6.5"/><rect class="d" x="1" y="1" width="49" height="11" rx="5.5"/></g><g class="a" transform="translate(2051.66 3084.135)"><rect class="c" width="51" height="12" rx="6"/><rect class="d" x="1" y="1" width="49" height="10" rx="5"/></g><g class="a" transform="translate(2054.66 3129.135)"><rect class="c" width="45" height="10"/><rect class="d" x="1" y="1" width="43" height="8"/></g><g class="a" transform="translate(2054.66 3076.135)"><rect class="c" width="45" height="10"/><rect class="d" x="1" y="1" width="43" height="8"/></g><g class="a" transform="translate(2051.66 3137.135)"><rect class="c" width="51" height="10" rx="5"/><rect class="d" x="1" y="1" width="49" height="8" rx="4"/></g><g class="a" transform="translate(2051.66 3068.135)"><rect class="c" width="51" height="10" rx="5"/><rect class="d" x="1" y="1" width="49" height="8" rx="4"/></g><g class="b" transform="translate(2072.775 3194.788)"><path class="c" d="M4.385-94c2.422,0,4.385,5.889,4.385,8.311A4.385,4.385,0,0,1,4.385-81.3,4.385,4.385,0,0,1,0-85.689C0-88.111,1.963-94,4.385-94Z"/><path class="e" d="M 4.385097503662109 -91.92704010009766 C 4.101117134094238 -91.686279296875 3.527143955230713 -90.99251556396484 2.92398738861084 -89.49808502197266 C 2.31737756729126 -87.99510192871094 1.999997615814209 -86.44430541992188 1.999997615814209 -85.68919372558594 C 1.999997615814209 -84.37405395507812 3.069947719573975 -83.30410003662109 4.385097503662109 -83.30410003662109 C 5.700247764587402 -83.30410003662109 6.77019739151001 -84.37405395507812 6.77019739151001 -85.68919372558594 C 6.77019739151001 -86.44430541992188 6.452817440032959 -87.99510192871094 5.846207618713379 -89.49808502197266 C 5.243050575256348 -90.99251556396484 4.66907787322998 -91.686279296875 4.385097503662109 -91.92704010009766 M 4.385097503662109 -94.00000762939453 C 6.806917667388916 -94.00000762939453 8.770197868347168 -88.11102294921875 8.770197868347168 -85.68919372558594 C 8.770197868347168 -83.26738739013672 6.806917667388916 -81.30410003662109 4.385097503662109 -81.30410003662109 C 1.963277339935303 -81.30410003662109 -2.86102294921875e-06 -83.26738739013672 -2.86102294921875e-06 -85.68919372558594 C -2.86102294921875e-06 -88.11102294921875 1.963277339935303 -94.00000762939453 4.385097503662109 -94.00000762939453 Z"/></g></g></svg>