<svg xmlns="http://www.w3.org/2000/svg" xmlns:xlink="http://www.w3.org/1999/xlink" width="51" height="79" viewBox="0 0 51 79">
  <defs>
    <linearGradient id="linear-gradient" x1="0.5" x2="0.5" y2="1" gradientUnits="objectBoundingBox">
      <stop offset="0" stop-color="#344bfc"/>
      <stop offset="1" stop-color="#1f77f0"/>
    </linearGradient>
  </defs>
  <g id="Group_104" data-name="Group 104" transform="translate(-50 -66)">
    <g id="Group_11" data-name="Group 11" transform="translate(-2001.66 -3002.136)">
      <g id="Path_582" data-name="Path 582" transform="translate(2054.66 3094.135)" fill="url(#linear-gradient)">
        <path d="M 44 25 L 1 25 L 1 1 L 44 1 L 44 25 Z" stroke="none"/>
        <path d="M 2 2 L 2 24 L 43 24 L 43 2 L 2 2 M 0 0 L 45 0 L 45 26 L 0 26 L 0 0 Z" stroke="none" fill="#fff"/>
      </g>
      <g id="Rectangle_57" data-name="Rectangle 57" transform="translate(2051.66 3118.135)" stroke="#fff" stroke-width="2" fill="url(#linear-gradient)">
        <rect width="51" height="13" rx="6.5" stroke="none"/>
        <rect x="1" y="1" width="49" height="11" rx="5.5" fill="none"/>
      </g>
      <g id="Path_580" data-name="Path 580" transform="translate(2051.66 3084.135)" fill="url(#linear-gradient)">
        <path d="M 45 11 L 6 11 C 3.242990016937256 11 1 8.757010459899902 1 6 C 1 3.242990016937256 3.242990016937256 1 6 1 L 45 1 C 47.75701141357422 1 50 3.242990016937256 50 6 C 50 8.757010459899902 47.75701141357422 11 45 11 Z" stroke="none"/>
        <path d="M 6 2 C 3.794391632080078 2 2 3.794389724731445 2 6 C 2 8.205610275268555 3.794391632080078 10 6 10 L 45 10 C 47.20560836791992 10 49 8.205610275268555 49 6 C 49 3.794389724731445 47.20560836791992 2 45 2 L 6 2 M 6 0 L 45 0 C 48.3137092590332 0 51 2.68628978729248 51 6 C 51 9.31371021270752 48.3137092590332 12 45 12 L 6 12 C 2.686290740966797 12 0 9.31371021270752 0 6 C 0 2.68628978729248 2.686290740966797 0 6 0 Z" stroke="none" fill="#fff"/>
      </g>
      <g id="Rectangle_58" data-name="Rectangle 58" transform="translate(2054.66 3129.135)" stroke="#fff" stroke-width="2" fill="url(#linear-gradient)">
        <rect width="45" height="10" stroke="none"/>
        <rect x="1" y="1" width="43" height="8" fill="none"/>
      </g>
      <g id="Path_581" data-name="Path 581" transform="translate(2054.66 3076.135)" fill="url(#linear-gradient)">
        <path d="M 44 9 L 1 9 L 1 1 L 44 1 L 44 9 Z" stroke="none"/>
        <path d="M 2 2 L 2 8 L 43 8 L 43 2 L 2 2 M 0 0 L 45 0 L 45 10 L 0 10 L 0 0 Z" stroke="none" fill="#fff"/>
      </g>
      <g id="Rectangle_59" data-name="Rectangle 59" transform="translate(2051.66 3137.135)" stroke="#fff" stroke-width="2" fill="url(#linear-gradient)">
        <rect width="51" height="10" rx="5" stroke="none"/>
        <rect x="1" y="1" width="49" height="8" rx="4" fill="none"/>
      </g>
      <g id="Rectangle_61" data-name="Rectangle 61" transform="translate(2051.66 3068.135)" stroke="#fff" stroke-width="2" fill="url(#linear-gradient)">
        <rect width="51" height="10" rx="5" stroke="none"/>
        <rect x="1" y="1" width="49" height="8" rx="4" fill="none"/>
      </g>
      <g id="Path_113" data-name="Path 113" transform="translate(2072.775 3194.788)" fill="none">
        <path d="M4.385-94c2.422,0,4.385,5.889,4.385,8.311A4.385,4.385,0,0,1,4.385-81.3,4.385,4.385,0,0,1,0-85.689C0-88.111,1.963-94,4.385-94Z" stroke="none"/>
        <path d="M 4.385097503662109 -91.92704010009766 C 4.101117134094238 -91.686279296875 3.527143955230713 -90.99251556396484 2.92398738861084 -89.49808502197266 C 2.31737756729126 -87.99510192871094 1.999997615814209 -86.44430541992188 1.999997615814209 -85.68919372558594 C 1.999997615814209 -84.37405395507812 3.069947719573975 -83.30410003662109 4.385097503662109 -83.30410003662109 C 5.700247764587402 -83.30410003662109 6.77019739151001 -84.37405395507812 6.77019739151001 -85.68919372558594 C 6.77019739151001 -86.44430541992188 6.452817440032959 -87.99510192871094 5.846207618713379 -89.49808502197266 C 5.243050575256348 -90.99251556396484 4.66907787322998 -91.686279296875 4.385097503662109 -91.92704010009766 M 4.385097503662109 -94.00000762939453 C 6.806917667388916 -94.00000762939453 8.770197868347168 -88.11102294921875 8.770197868347168 -85.68919372558594 C 8.770197868347168 -83.26738739013672 6.806917667388916 -81.30410003662109 4.385097503662109 -81.30410003662109 C 1.963277339935303 -81.30410003662109 -2.86102294921875e-06 -83.26738739013672 -2.86102294921875e-06 -85.68919372558594 C -2.86102294921875e-06 -88.11102294921875 1.963277339935303 -94.00000762939453 4.385097503662109 -94.00000762939453 Z" stroke="none" fill="#fff"/>
      </g>
    </g>
  </g>
</svg>
