<svg xmlns="http://www.w3.org/2000/svg" width="21.981" height="14.838" viewBox="0 0 21.981 14.838">
  <path id="Icon_zocial-email" data-name="Icon zocial-email" d="M.072,17.592V5.382q0-.021.064-.4l7.186,6.147L.157,18.015a1.8,1.8,0,0,1-.085-.424Zm.954-13.46a.913.913,0,0,1,.36-.064H20.739a1.2,1.2,0,0,1,.382.064L13.914,10.3l-.954.763L11.073,12.61,9.187,11.063,8.233,10.3Zm.021,14.711,7.228-6.931,2.8,2.268,2.8-2.268L21.1,18.842a1.018,1.018,0,0,1-.36.064H1.386a.96.96,0,0,1-.339-.064Zm13.778-7.716L21.99,4.979a1.265,1.265,0,0,1,.064.4V17.592a1.625,1.625,0,0,1-.064.424Z" transform="translate(-0.072 -4.068)" fill="#fff"/>
</svg>
