<svg xmlns="http://www.w3.org/2000/svg" width="144" height="144" viewBox="0 0 144 144">
  <g id="Group_231" data-name="Group 231" transform="translate(-611 -142)">
    <circle id="Ellipse_39" data-name="Ellipse 39" cx="72" cy="72" r="72" transform="translate(611 142)" fill="#f37b0a"/>
    <path id="Path_677" data-name="Path 677" d="M482.667,552.488c0,11.366-17.868.971-37.025.971s-38.532,9.966-38.532-1.4c0-6.481,6.175-15.495,15.035-22.041h0c6.675-4.934,14.871-8.467,23.105-8.467,8.467,0,16.762,3.825,23.378,9.076C476.979,537.248,482.667,546.144,482.667,552.488Z" transform="translate(238.112 -302.305)" fill="#2b5198"/>
    <path id="Path_678" data-name="Path 678" d="M518.011,530.606c-10.183-1.533-28.6-3.4-46.481-.609,6.675-4.934,14.871-8.467,23.105-8.467C503.1,521.53,511.395,525.355,518.011,530.606Z" transform="translate(188.726 -302.291)" fill="#f6f8fb"/>
    <path id="Path_679" data-name="Path 679" d="M336.448,281.31s-21.689,13.866-21.511,35.554S336.448,281.31,336.448,281.31Z" transform="translate(308.774 -118.135)" opacity="0.05"/>
    <path id="Path_693" data-name="Path 693" d="M404,443.86c1.37-.077,7.818-.562,11.914-2.9a4.642,4.642,0,0,1,2.164-.637c1.3-.037,2.8.506,1.841,3.55-1.554,4.978-10.579,10.579-16.181,10.269a18.561,18.561,0,0,1-16-10.1,4.668,4.668,0,0,1-.576-2.4c.049-1.54.609-3.47,3.5-1.319,3.907,2.906,11.319,3.456,12.806,3.538a4.937,4.937,0,0,0,.527,0Z" transform="translate(253.406 -239.301)" fill="#2b5198"/>
    <path id="Path_694" data-name="Path 694" d="M626,443.86c1.37-.077,7.818-.562,11.914-2.9a4.642,4.642,0,0,1,2.164-.637c1.3-.037,2.8.506,1.841,3.55-1.554,4.978-10.579,10.579-16.181,10.269a18.561,18.561,0,0,1-16-10.1,4.668,4.668,0,0,1-.576-2.4c.049-1.54.609-3.47,3.5-1.319,3.907,2.906,11.319,3.456,12.806,3.538A4.938,4.938,0,0,0,626,443.86Z" transform="translate(83.218 -239.301)" fill="#2b5198"/>
  </g>
</svg>
