<svg xmlns="http://www.w3.org/2000/svg" xmlns:xlink="http://www.w3.org/1999/xlink" width="55.264" height="82.259" viewBox="0 0 55.264 82.259">
  <defs>
    <linearGradient id="linear-gradient" x1="0.5" x2="0.5" y2="1" gradientUnits="objectBoundingBox">
      <stop offset="0" stop-color="#344bfc"/>
      <stop offset="1" stop-color="#1f77f0"/>
    </linearGradient>
  </defs>
  <g id="Group_9" data-name="Group 9" transform="translate(-1844.645 -3049.835)">
    <path id="Path_111" data-name="Path 111" d="M2554.492,2786.641c38.241,8.932,45.255,80,3.327,80-44.867,0-14.954-63.4-14.954-63.4l4.872,8.362s9.6-4.286,6.756-22.92C2554.485,2788.675,2554.492,2786.641,2554.492,2786.641Z" transform="translate(-687.448 264.454)" stroke="#1f77f0" stroke-width="2" fill="url(#linear-gradient)"/>
    <path id="Path_112" data-name="Path 112" d="M2544.818,2786.641c-17.447,4.075-19.4,39.745,0,35.955s5.305-28.383,5.305-28.383l-2.223,3.815s-4.379-1.956-3.082-10.458C2544.821,2787.569,2544.818,2786.641,2544.818,2786.641Z" transform="translate(-672.065 296.669)" fill="#fff" stroke="#fff" stroke-width="2"/>
  </g>
</svg>
