<svg xmlns="http://www.w3.org/2000/svg" width="25.459" height="20.367" viewBox="0 0 25.459 20.367">
  <path id="Icon_awesome-laptop" data-name="Icon awesome-laptop" d="M24.822,16.548H15.177a1.254,1.254,0,0,1-1.3,1.273H11.456a1.351,1.351,0,0,1-1.3-1.273H.636A.638.638,0,0,0,0,17.185v.636a2.553,2.553,0,0,0,2.546,2.546H22.913a2.553,2.553,0,0,0,2.546-2.546v-.636A.638.638,0,0,0,24.822,16.548ZM22.913,1.909A1.915,1.915,0,0,0,21,0H4.455A1.915,1.915,0,0,0,2.546,1.909V15.275H22.913Zm-2.546,10.82H5.092V2.546H20.367Z" fill="#fff"/>
</svg>
