<svg xmlns="http://www.w3.org/2000/svg" xmlns:xlink="http://www.w3.org/1999/xlink" width="211.653" height="238.422" viewBox="0 0 211.653 238.422">
  <defs>
    <linearGradient id="linear-gradient" x1="0.5" x2="0.5" y2="1" gradientUnits="objectBoundingBox">
      <stop offset="0" stop-color="#34599d"/>
      <stop offset="1" stop-color="#1a438f"/>
    </linearGradient>
    <linearGradient id="linear-gradient-3" x1="0" y1="0.982" x2="3.33" y2="0.407" xlink:href="#linear-gradient"/>
  </defs>
  <g id="Group_225" data-name="Group 225" transform="translate(3208 -1243.578)">
    <path id="Path_352" data-name="Path 352" d="M47.546,38.052a17.988,17.988,0,0,1-.252-20.363s-.692-10.073,3.98-11.2,9.915,3.1,9.915,3.1S60.575-3.6,70.656.968c9.915,4.5,8.523,16.656,8.523,16.656s5.768-8.256,6.828,1.666-3.346,17.406-5.5,18.466c0,0-.721,5.48-13.606,11.645C53.884,55.638,47.546,38.052,47.546,38.052Z" transform="translate(-3220.336 1243.573)" fill="#842c35"/>
    <path id="Path_353" data-name="Path 353" d="M65.07,21.448c-2-7.434-3.129-14.111-1.673-19.368-2.459,2.69-2.214,8.076-2.214,8.076S55.913,5.923,51.277,7.07,47.3,18.282,47.3,18.282a17.988,17.988,0,0,0,.252,20.363s6.338,17.587,19.353,11.349c6.035-2.884,9.374-5.639,11.277-7.737C72.584,40.239,67.861,31.9,65.07,21.448Z" transform="translate(-3220.339 1242.994)" fill="#6d202b"/>
    <path id="Path_354" data-name="Path 354" d="M204.45,234.641v42.384H212.6V236.646a6.649,6.649,0,0,1,6.425-6.843H251.47a6.645,6.645,0,0,1,6.425,6.843v63.4h8.148V234.641c0-7.449-5.668-13.491-12.662-13.491H217.1C210.118,221.15,204.45,227.192,204.45,234.641Z" transform="translate(-3265.029 1181.887)" fill="#aab5ba"/>
    <path id="Path_355" data-name="Path 355" d="M215.758,221.76a12.367,12.367,0,0,0-4.838,2.6v29.059H214.4V236.83a7.081,7.081,0,0,1,1.356-4.2Z" transform="translate(-3266.834 1181.717)" fill="#93a0a5"/>
    <path id="Path_356" data-name="Path 356" d="M205.726,276.7V236.217c0-6.6,3.353-10.181,5.12-12.6a13.65,13.65,0,0,0-6.4,11.71v42.384H210.3V276.7Z" transform="translate(-3265.029 1181.198)" fill="#93a0a5"/>
    <path id="Path_357" data-name="Path 357" d="M259.954,229H227.507a6.3,6.3,0,0,0-5.437,3.353,5.969,5.969,0,0,1,1.875-.3h32.448a6.645,6.645,0,0,1,6.425,6.843v63.4h3.569V236.11C266.386,232.158,263.5,229,259.954,229Z" transform="translate(-3269.944 1179.697)" fill="#93a0a5"/>
    <rect id="Rectangle_236" data-name="Rectangle 236" width="67.881" height="13.563" transform="translate(-3089.595 1468.401)" fill="#465960"/>
    <path id="Path_358" data-name="Path 358" d="M172.21,139.768v46.559h4.838V141.4a5.083,5.083,0,0,1,4.918-5.242h20.961a5.084,5.084,0,0,1,4.918,5.242v86.7h4.838v-88.33A8.511,8.511,0,0,0,204.449,131H180.437A8.509,8.509,0,0,0,172.21,139.768Z" transform="translate(-3256.036 1207.033)" fill="#8e9da3"/>
    <path id="Path_359" data-name="Path 359" d="M211.145,229.492V141.444A5.552,5.552,0,0,0,205.477,136H181.358a5.552,5.552,0,0,0-5.668,5.43v46.278h2.329V142.792a5.083,5.083,0,0,1,4.918-5.242H203.9a5.083,5.083,0,0,1,4.918,5.242v86.7Z" transform="translate(-3257.007 1205.639)" fill="#678087"/>
    <path id="Path_360" data-name="Path 360" d="M277.278,318.2H287.5a1.168,1.168,0,0,1,1.168,1.168v7.787H276.11v-7.787A1.168,1.168,0,0,1,277.278,318.2Z" transform="translate(-3285.018 1154.816)" fill="#514347"/>
    <path id="Path_361" data-name="Path 361" d="M288.42,318.2H281a9.374,9.374,0,0,0,6.043,6.627,9.54,9.54,0,0,0,2.978.57v-5.48a1.666,1.666,0,0,0-1.6-1.716Z" transform="translate(-3286.382 1154.816)" fill="#7f6b72"/>
    <path id="Path_362" data-name="Path 362" d="M171.491,196.45h4.882a1.168,1.168,0,0,1,1.168,1.168v7.787H170.33v-7.787A1.168,1.168,0,0,1,171.491,196.45Z" transform="translate(-3255.512 1188.776)" fill="#514347"/>
    <rect id="Rectangle_237" data-name="Rectangle 237" width="15.95" height="3.194" transform="translate(-3116.577 1384.693)" fill="#c9b697"/>
    <path id="Path_363" data-name="Path 363" d="M146.56,194.25h2.827a3.786,3.786,0,0,1,3.786,3.786v7.614a3.786,3.786,0,0,1-3.786,3.786H146.56Z" transform="translate(-3248.881 1189.39)" fill="#c9b697"/>
    <path id="Path_364" data-name="Path 364" d="M92.293,142.97l1.219,35.173-14.558-.216-4.2-32.837Z" transform="translate(-3228.851 1203.694)" fill="#ffb882"/>
    <path id="Path_365" data-name="Path 365" d="M79.069,167.927c3.31-8.855,8.783-15.229,13.52-16.4l-.3-8.53L74.75,145.12,78.06,171C78.363,169.968,78.687,168.958,79.069,167.927Z" transform="translate(-3228.851 1203.686)" fill="#ff9566"/>
    <path id="Path_366" data-name="Path 366" d="M65.88,78.46C73,82.512,74.028,101.534,71.605,129l19.952-1.622C91,112.84,86.272,79.037,65.88,78.46Z" transform="translate(-3226.376 1221.689)" fill="#f37b0a"/>
    <path id="Path_367" data-name="Path 367" d="M77.919,128.483a94.359,94.359,0,0,0,.043-13.945C76.614,94.8,69.879,78.78,62.921,78.78a4.8,4.8,0,0,0-.851.087c6.836,4.889,9,23.593,8.472,50.222Z" transform="translate(-3225.314 1221.599)" fill="#be5f06"/>
    <rect id="Rectangle_238" data-name="Rectangle 238" width="58.117" height="13.563" transform="translate(-3091.888 1468.401)" fill="#2c3d42"/>
    <path id="Path_368" data-name="Path 368" d="M107.73,218.536v77.327h8.126v-75.3a6.129,6.129,0,0,1,5.927-6.309h32.693a6.129,6.129,0,0,1,5.927,6.309v39.37h8.148v-41.4c0-6.9-5.257-12.5-11.732-12.5H119.462C112.972,206.011,107.73,211.635,107.73,218.536Z" transform="translate(-3238.05 1186.101)" fill="#b8ccc9"/>
    <path id="Path_369" data-name="Path 369" d="M164.347,262.094v-41.54a6.778,6.778,0,0,0-6.792-6.764H116.922a6.778,6.778,0,0,0-6.792,6.764v77.471h6.4v-75.3a6.129,6.129,0,0,1,5.927-6.309h32.693a6.129,6.129,0,0,1,5.927,6.309v39.37Z" transform="translate(-3238.72 1183.94)" fill="#91afaa"/>
    <rect id="Rectangle_239" data-name="Rectangle 239" width="8.912" height="4.067" rx="1.61" transform="translate(-3050.146 1428.353)" fill="#465960"/>
    <rect id="Rectangle_240" data-name="Rectangle 240" width="12.979" height="4.067" rx="1.61" transform="translate(-3063.463 1428.353)" fill="#465960"/>
    <rect id="Rectangle_241" data-name="Rectangle 241" width="14.508" height="4.067" rx="1.61" transform="translate(-3081.281 1428.353)" fill="#465960"/>
    <path id="Path_370" data-name="Path 370" d="M223.662,258.76H156.719c-17.305,0-17.305,49.364,0,49.364h66.943C237.918,308.124,237.918,258.76,223.662,258.76Z" transform="translate(-3248.095 1171.396)" fill="#6c7a82"/>
    <path id="Path_371" data-name="Path 371" d="M223.715,258.76H156.772c-7.766,0-12.042,9.929-12.842,20.875a8.422,8.422,0,0,0,4.016,1.009H214.89c6.533,0,10.095-10.369,10.614-21.632A5.914,5.914,0,0,0,223.715,258.76Z" transform="translate(-3248.148 1171.396)" fill="#9aaaaf"/>
    <path id="Path_372" data-name="Path 372" d="M248.739,258.76h-2.12c-17.305,0-17.305,49.364,0,49.364h2.12C262.994,308.124,262.994,258.76,248.739,258.76Z" transform="translate(-3273.171 1171.396)" fill="#8798a0"/>
    <path id="Path_373" data-name="Path 373" d="M247.252,258.93h2.026a5.87,5.87,0,0,0-1.442-.18h-2.127c-17.219,0-17.305,48.845-.26,49.357C229.968,304.819,230.567,258.93,247.252,258.93Z" transform="translate(-3272.917 1171.399)" fill="#6c7a82"/>
    <rect id="Rectangle_242" data-name="Rectangle 242" width="2.206" height="21.689" rx="0.88" transform="translate(-3101.435 1369.954)" fill="#e2424d"/>
    <rect id="Rectangle_243" data-name="Rectangle 243" width="2.206" height="21.689" rx="0.88" transform="translate(-3101.435 1375.11)" fill="#bf2b39"/>
    <rect id="Rectangle_244" data-name="Rectangle 244" width="24.689" height="13.859" rx="3.15" transform="translate(-3114.882 1389.748)" fill="#ffb531"/>
    <path id="Path_374" data-name="Path 374" d="M158.907,213.233v-7.167a3.245,3.245,0,0,0-3.144-3.346h-5.3a3.245,3.245,0,0,0-3.144,3.346v7.167a3.252,3.252,0,0,0,3.144,3.346h5.278a3.252,3.252,0,0,0,3.165-3.346Z" transform="translate(-3249.093 1187.028)" fill="#ed9224"/>
    <path id="Path_375" data-name="Path 375" d="M135.759,208.077a3.252,3.252,0,0,1-3.137-3.346V202.72h-.339a3.245,3.245,0,0,0-3.144,3.346v7.167a3.252,3.252,0,0,0,3.144,3.346H150.67a3.252,3.252,0,0,0,3.144-3.346v-5.156Z" transform="translate(-3244.022 1187.028)" fill="#ed9224"/>
    <path id="Path_376" data-name="Path 376" d="M152.849,208.413V211.3a3.252,3.252,0,0,0,3.144,3.346h4.326a3.36,3.36,0,0,0,.094-.764v-7.167a3.512,3.512,0,0,0-.425-1.651h-4.031A3.252,3.252,0,0,0,152.849,208.413Z" transform="translate(-3250.635 1186.375)" fill="#514347"/>
    <rect id="Rectangle_245" data-name="Rectangle 245" width="17.652" height="8.184" rx="3.15" transform="translate(-3096.38 1392.141)" fill="#b8ccc9"/>
    <path id="Path_377" data-name="Path 377" d="M57.032,159.807l-2.74-25.316s5.531-43.574.512-54.974c-4.326-9.886-24.6-17.789-39.875-4.449-12.135,10.6-10.181,31.871-11.71,70.361-.562,14.154,3.324,21.632,9.641,55.767L4.6,255.643H6.262l25.475-55.774,2.315-24.083,20.276,29.376,8.429,50.474h1.579l7.124-58.976Z" transform="translate(-3208.883 1224.604)" fill="#1a438f"/>
    <path id="Path_378" data-name="Path 378" d="M75.5,294.011l-4.918-49.724-17.608-31.6-6.944,3.454,20.644,31.395,7.636,46.833Z" transform="translate(-3220.84 1184.246)" fill="url(#linear-gradient)"/>
    <path id="Path_379" data-name="Path 379" d="M37.66,211.492l6.994,4.615,12.986-6.237-12.222,2.437Z" transform="translate(-3218.505 1185.033)" fill="url(#linear-gradient)"/>
    <path id="Path_380" data-name="Path 380" d="M13.364,79.94C3,90.994,4.711,112.02,3.269,148.758c-.562,14.154,3.324,21.632,9.641,55.767L4.618,258.972h.3l13.073-55.24s5.293-31.244,6.237-41.771c2.163-24.141,11.075-32.549,7.124-62.516Z" transform="translate(-3208.897 1221.276)" fill="url(#linear-gradient-3)"/>
    <path id="Path_381" data-name="Path 381" d="M28.727,134.38l-.548,41.764-14.8-.591L9.77,137.142Z" transform="translate(-3210.725 1206.09)" fill="#ffb882"/>
    <path id="Path_382" data-name="Path 382" d="M28.539,148.426l.187-14.046L9.77,137.142l2.964,31.575C17.233,158.709,23.283,151.166,28.539,148.426Z" transform="translate(-3210.725 1206.09)" fill="#ff9566"/>
    <path id="Path_383" data-name="Path 383" d="M21.021,70.907c12.8-2.48,9.547,50.265,9.547,50.265L1.3,126.328C1.343,115.959.492,74.887,21.021,70.907Z" transform="translate(-3208.363 1223.819)" fill="#f37b0a"/>
    <path id="Path_384" data-name="Path 384" d="M7.79,108.633c0-20.788,6.49-37.639,14.421-37.639a6.071,6.071,0,0,1,1.146.13A4.038,4.038,0,0,0,21,70.907C.492,74.887,1.343,115.959,1.3,126.328l7.932-1.392a90.782,90.782,0,0,1-1.442-16.3Z" transform="translate(-3208.363 1223.819)" fill="#be5f06"/>
    <path id="Path_385" data-name="Path 385" d="M63.724,111.348c1.031-1.442,3.2-21.827-.656-34.669-4.442-5.646-13.859-9.835-23.658-8.364,4.7,9.972,5.877,30.508,5.48,39.42C44.717,111.536,62.542,112.978,63.724,111.348Z" transform="translate(-3218.993 1224.601)" fill="#f37b0a"/>
    <path id="Path_386" data-name="Path 386" d="M61.782,70.711,40.54,68.18c2.884,11.934,17.14,28.568,17.14,28.568S62.77,76.862,61.782,70.711Z" transform="translate(-3219.308 1224.556)" fill="#ffb882"/>
    <path id="Path_387" data-name="Path 387" d="M65.406,78.245a20.442,20.442,0,0,0-5.17-4.535A19.469,19.469,0,0,1,64.2,77.438c3.858,12.835,1.68,33.255.656,34.669-.952,1.3-12.561.627-17.068-1.637,3.007,2.884,17.219,3.894,18.272,2.444S69.263,91.109,65.406,78.245Z" transform="translate(-3221.331 1223.014)" fill="#be5f06"/>
    <path id="Path_388" data-name="Path 388" d="M13.611,199.081H88.327V192.75h7.578V209.2H93.158v-4.521H7.77S9.659,198.7,13.611,199.081Z" transform="translate(-3210.167 1189.809)" fill="#9b2642"/>
    <path id="Path_389" data-name="Path 389" d="M110.273,195.71H85.13V198.9h25.143C111.16,198.9,111.16,195.71,110.273,195.71Z" transform="translate(-3231.746 1188.983)" fill="#c9b697"/>
    <path id="Path_390" data-name="Path 390" d="M15.841,199.081H90.557V192.75h7.557V209.2H95.366v-4.521H10S11.889,198.7,15.841,199.081Z" transform="translate(-3210.789 1189.809)" fill="#dd3737"/>
    <rect id="Rectangle_246" data-name="Rectangle 246" width="18.07" height="5.603" transform="translate(-3155.139 1388.889)" fill="#a32b2b"/>
    <path id="Path_391" data-name="Path 391" d="M26.413,201.524H17.291c-3.605-.368-5.321,5.6-5.321,5.6H26.413Z" transform="translate(-3211.339 1187.366)" fill="#a32b2b"/>
    <path id="Path_392" data-name="Path 392" d="M40.3,62.511A101.187,101.187,0,0,1,51.383,46.72L64.232,60.067l-3.057,8.141a10.282,10.282,0,0,1-10.564,4.478C43.357,71.438,40.3,62.511,40.3,62.511Z" transform="translate(-3219.241 1230.542)" fill="#ffb882"/>
    <path id="Path_393" data-name="Path 393" d="M79.745,188.187A43.935,43.935,0,0,0,78,196.371a3.728,3.728,0,0,1,4.283,3.908c.087,1.738-2.61,1.695-2.61,1.695a5.007,5.007,0,0,0,3.086,5c1.442.721,3.85-.887,3.85-.887s1.4,2.163,3.1,1.983a4.283,4.283,0,0,0,2.769-1.99s.087,1.8,2.293.808,3.562-7.412,2.711-11.934-3.137-6.057-3.649-10.578S79.745,188.187,79.745,188.187Z" transform="translate(-3229.757 1192.518)" fill="#ffb882"/>
    <path id="Path_394" data-name="Path 394" d="M14.339,182.239c-.4,1.334-.1,3.677-.072,4.932a10.816,10.816,0,0,0,3.375,7.405,5.833,5.833,0,0,1,1.6,4.024c.087,1.745-1.8,2.668-1.8,2.668a5.034,5.034,0,0,0,3.086,5c1.442.721,3.858-.887,3.858-.887s1.4,2.163,3.093,1.983a4.425,4.425,0,0,0,2.8-1.983s.087,1.8,2.286.808,3.569-7.413,2.718-11.934-5.293-7.989-5.768-12.51S14.339,182.239,14.339,182.239Z" transform="translate(-3211.942 1193.404)" fill="#ffb882"/>
    <path id="Path_395" data-name="Path 395" d="M98.014,328.216H84.934s-.894-5.156,1.4-6.1S98.014,328.216,98.014,328.216Z" transform="translate(-3231.644 1153.747)" fill="#f37b0a"/>
    <path id="Path_396" data-name="Path 396" d="M0,328.146H11.1s-1.925-5.307-4.362-6.28S0,328.146,0,328.146Z" transform="translate(-3208 1153.818)" fill="#f37b0a"/>
    <path id="Path_397" data-name="Path 397" d="M248.547,264.868h1.824c8.5,0,11.1,20.392,7.823,32.916,5.105-11.58,2.935-36.774-6.49-36.774h-1.846c-4.961,0-8.271,4.723-9.929,11.018C241.79,267.759,244.66,264.868,248.547,264.868Z" transform="translate(-3274.926 1170.768)" fill="#97aab2"/>
    <path id="Path_398" data-name="Path 398" d="M212.562,322.118c-.49-1.2-13.051-2.978-27.631-2.978s-25.677,1.781-25.187,2.978,12.381,1.356,26.968,1.356S213.038,323.322,212.562,322.118Z" transform="translate(-3252.555 1154.553)" fill="#7d8c93"/>
    <path id="Path_399" data-name="Path 399" d="M159.958,260.4c-4.564,0-7.787,3.8-9.7,9.172a132.908,132.908,0,0,0,26.593-.1c17.2-1.579,31.409-5.365,35.231-9.071Z" transform="translate(-3249.914 1170.938)" fill="#b1c0c4"/>
    <path id="Path_400" data-name="Path 400" d="M218.191,258.76H209.9c-17.305,0-17.305,49.364,0,49.364h8.292C205.255,302.132,205.255,264.759,218.191,258.76Z" transform="translate(-3262.929 1171.396)" fill="#daeaf2" opacity="0.45" style="mix-blend-mode: overlay;isolation: isolate"/>
    <path id="Path_401" data-name="Path 401" d="M184.293,258.76h-8.314c-17.305,0-17.305,49.364,0,49.364h8.285C171.357,302.132,171.357,264.759,184.293,258.76Z" transform="translate(-3253.467 1171.396)" fill="#daeaf2" opacity="0.45" style="mix-blend-mode: overlay;isolation: isolate"/>
    <rect id="Rectangle_247" data-name="Rectangle 247" width="71.017" height="5.019" rx="1.99" transform="translate(-3107.665 1451.449)" fill="#465960"/>
    <path id="Path_402" data-name="Path 402" d="M189.451,292.43H187c-.065,13.311,4.261,26.715,12.979,26.715h2.257C193.655,318.972,189.386,305.654,189.451,292.43Z" transform="translate(-3260.161 1162.004)" fill="#2c3d42"/>
    <path id="Path_403" data-name="Path 403" d="M191.813,292.43H189.39c-.058,13.311,4.261,26.715,12.979,26.715h2.257C196.016,318.972,191.748,305.654,191.813,292.43Z" transform="translate(-3260.828 1162.004)" fill="#465960"/>
    <path id="Path_404" data-name="Path 404" d="M156.572,292.43H154.15c-.065,13.311,4.261,26.715,12.979,26.715h2.257C160.776,318.972,156.508,305.654,156.572,292.43Z" transform="translate(-3250.998 1162.004)" fill="#2c3d42"/>
    <path id="Path_405" data-name="Path 405" d="M159.063,292.43H156.64c-.065,13.311,4.261,26.715,12.979,26.715h2.257C163.252,318.972,158.983,305.654,159.063,292.43Z" transform="translate(-3251.693 1162.004)" fill="#465960"/>
    <path id="Path_406" data-name="Path 406" d="M220.408,292.43H218c-.065,13.311,4.261,26.715,12.979,26.715h2.25C224.619,318.972,220.35,305.654,220.408,292.43Z" transform="translate(-3268.809 1162.004)" fill="#2c3d42"/>
    <path id="Path_407" data-name="Path 407" d="M222.643,292.43H220.22c-.065,13.311,4.262,26.715,12.979,26.715h2.257C226.846,318.972,222.578,305.654,222.643,292.43Z" transform="translate(-3269.428 1162.004)" fill="#465960"/>
    <rect id="Rectangle_248" data-name="Rectangle 248" width="67.535" height="5.019" rx="1.99" transform="translate(-3107.665 1451.449)" fill="#2c3d42"/>
    <path id="Path_408" data-name="Path 408" d="M229.732,291.343c0-.613-.353-1.1-.786-1.1s-.786.49-.786,1.1.353,1.11.786,1.11S229.732,291.956,229.732,291.343Z" transform="translate(-3271.643 1162.615)" fill="#8798a0"/>
    <path id="Path_409" data-name="Path 409" d="M142.772,291.343c0-.613-.353-1.1-.786-1.1s-.786.49-.786,1.1.353,1.11.786,1.11S142.772,291.956,142.772,291.343Z" transform="translate(-3247.386 1162.615)" fill="#8798a0"/>
    <rect id="Rectangle_249" data-name="Rectangle 249" width="23.081" height="4.341" rx="1.72" transform="translate(-3111.868 1372.752)" fill="#e2424d"/>
    <path id="Path_410" data-name="Path 410" d="M154.36,181.894H135.353a2.026,2.026,0,0,1-1.788-1.154,2.3,2.3,0,0,0-.245,1.017,2.105,2.105,0,0,0,2.033,2.163H154.36a2.113,2.113,0,0,0,2.041-2.163,2.3,2.3,0,0,0-.252-1.017,2,2,0,0,1-1.788,1.154Z" transform="translate(-3245.188 1193.159)" fill="#bf2b39"/>
    <path id="Path_411" data-name="Path 411" d="M159.825,211.949a3.252,3.252,0,0,1-3.144-3.346v-1.493a3.469,3.469,0,0,1,.079-.721,3.353,3.353,0,0,0-1.961,3.1v1.493a3.245,3.245,0,0,0,3.137,3.346h11.371a3.158,3.158,0,0,0,2.985-2.372Z" transform="translate(-3251.179 1186.004)" fill="#91afaa"/>
    <path id="Path_412" data-name="Path 412" d="M145.633,218.169c0-.5-.245-.909-.555-.909s-.548.4-.548.909.245.9.548.9S145.633,218.666,145.633,218.169Z" transform="translate(-3248.315 1182.972)" fill="#514347"/>
    <path id="Path_413" data-name="Path 413" d="M145.633,206.569c0-.5-.245-.909-.555-.909s-.548.411-.548.909.245.9.548.9S145.633,207.066,145.633,206.569Z" transform="translate(-3248.315 1186.207)" fill="#514347"/>
    <g id="Group_14" data-name="Group 14" transform="translate(-3072.369 1338.033)" opacity="0.65" style="mix-blend-mode: overlay;isolation: isolate">
      <rect id="Rectangle_250" data-name="Rectangle 250" width="11.198" height="5.156" fill="#f7deb0"/>
      <rect id="Rectangle_251" data-name="Rectangle 251" width="5.091" height="5.156" transform="translate(13.405)" fill="#f7deb0"/>
    </g>
    <ellipse id="Ellipse_18" data-name="Ellipse 18" cx="8.191" cy="21.098" rx="8.191" ry="21.098" transform="translate(-3029.761 1433.473)" fill="#97aab2"/>
    <path id="Path_414" data-name="Path 414" d="M264.561,273.275c-.887-4.218-2.682-7.47-4-7.268s-1.666,3.793-.779,8,2.682,7.47,4,7.268S265.455,277.486,264.561,273.275Z" transform="translate(-3280.326 1169.377)" fill="#daeaf2" opacity="0.45" style="mix-blend-mode: overlay;isolation: isolate"/>
    <path id="Path_415" data-name="Path 415" d="M268.088,292.079c0-2.041-.49-3.742-1.147-3.8s-1.2,1.55-1.211,3.605.49,3.742,1.146,3.8S268.088,294.12,268.088,292.079Z" transform="translate(-3282.123 1163.162)" fill="#daeaf2" opacity="0.45" style="mix-blend-mode: overlay;isolation: isolate"/>
    <path id="Path_416" data-name="Path 416" d="M106.658,318.2h10.225a1.168,1.168,0,0,1,1.168,1.168v7.787H105.49v-7.787a1.168,1.168,0,0,1,1.168-1.168Z" transform="translate(-3237.425 1154.816)" fill="#514347"/>
    <path id="Path_417" data-name="Path 417" d="M117.805,318.2H110.4a9.374,9.374,0,0,0,6.042,6.627,9.542,9.542,0,0,0,2.978.57v-5.48A1.666,1.666,0,0,0,117.805,318.2Z" transform="translate(-3238.795 1154.816)" fill="#7f6b72"/>
    <path id="Path_418" data-name="Path 418" d="M50.159,134.565c.368-2.4-.375-4.528-1.658-4.752s-2.668,1.572-3.014,3.951.382,4.528,1.666,4.752S49.77,136.973,50.159,134.565Z" transform="translate(-3220.664 1207.37)" fill="url(#linear-gradient)"/>
    <path id="Path_419" data-name="Path 419" d="M49.967,133.712c.18-1.2-.187-2.257-.829-2.365s-1.305.772-1.485,1.961.187,2.257.829,2.372S49.787,134.909,49.967,133.712Z" transform="translate(-3221.279 1206.939)" fill="#f37b0a"/>
    <path id="Path_420" data-name="Path 420" d="M72.815,135.224c.368-2.4-.375-4.528-1.658-4.752s-2.625,1.543-2.992,3.951.382,4.528,1.666,4.752S72.447,137.633,72.815,135.224Z" transform="translate(-3226.988 1207.186)" fill="url(#linear-gradient)"/>
    <path id="Path_421" data-name="Path 421" d="M72.647,134.372c.18-1.2-.187-2.257-.829-2.365s-1.305.764-1.485,1.961.187,2.257.829,2.365S72.467,135.6,72.647,134.372Z" transform="translate(-3227.606 1206.755)" fill="#f37b0a"/>
    <path id="Path_422" data-name="Path 422" d="M48.522,85.532c11.833,1.017,16.837-12.078,14.645-13.282a16.788,16.788,0,0,0-3.339-1.384c-.411-.483-.858-.959-1.334-1.442.058-.858.094-1.651.087-2.365l2.3-6.129c-.389-.476-.786-.952-1.2-1.442A55.615,55.615,0,0,0,46.9,48.78a100.856,100.856,0,0,0-9.655,13.989h0v.05A26.946,26.946,0,0,0,30.07,64.7h-.663a.346.346,0,0,1-.087,0,4.866,4.866,0,0,0-.62.079C29.428,71.832,36.848,84.523,48.522,85.532Z" transform="translate(-3216.006 1229.968)" fill="#c94343" opacity="0.6" style="mix-blend-mode: multiply;isolation: isolate"/>
    <path id="Path_423" data-name="Path 423" d="M63.557,30.054c-10.924,9.237-14.9,28.121-14.421,31.4.872,6.374,13.477,8.754,15.258,6.886s8.429-15.726,12.583-19.815,2.545-13.9-.678-17.565a9.085,9.085,0,0,0-12.741-.909Z" transform="translate(-3221.695 1235.801)" fill="#ffb882"/>
    <path id="Path_424" data-name="Path 424" d="M56.038,50.789c7.405-11.667,14.529-17.327,9.828-25.461S54.25,43.637,54.25,43.637Z" transform="translate(-3223.133 1236.943)" fill="#6d202b"/>
    <path id="Path_425" data-name="Path 425" d="M52.839,55.644c-2.791-2.055-2.747-12.554-.353-14.01s4.622.865,3.944,5.978S54.021,56.51,52.839,55.644Z" transform="translate(-3222.147 1232.08)" fill="#ffb882"/>
    <path id="Path_426" data-name="Path 426" d="M53.533,53.818c-1.586-1.168-1.565-7.153-.2-7.982s2.632.5,2.25,3.4S54.254,54.272,53.533,53.818Z" transform="translate(-3222.595 1230.857)" fill="#db5b3e"/>
    <path id="Path_427" data-name="Path 427" d="M53.411,56.591c-1.017-.721-1-4.564-.13-5.091s1.68.31,1.442,2.163S53.836,56.908,53.411,56.591Z" transform="translate(-3222.682 1229.252)" fill="#ffb882"/>
    <path id="Path_428" data-name="Path 428" d="M80.542,56c.721-1.1.764-2.307.13-2.7s-1.716.18-2.423,1.276-.764,2.307-.13,2.7S79.843,57.1,80.542,56Z" transform="translate(-3229.668 1228.74)" fill="#4f3131"/>
    <path id="Path_429" data-name="Path 429" d="M75.148,51.23c1.082-.144-.541,12.828-1.442,14.1-.425.635-4.326-2.668-4.326-2.668S74.954,51.251,75.148,51.23Z" transform="translate(-3227.353 1229.285)" fill="#ffb882"/>
    <path id="Path_430" data-name="Path 430" d="M75.464,52c0,2.841-1.017,12.193-1.745,13.253-.332.476-2.819-1.442-3.829-2.293l-.18.382s4.045,3.713,4.463,3.079C74.967,65.181,76.178,52.851,75.464,52Z" transform="translate(-3227.445 1229.069)" fill="#ea7b59"/>
    <path id="Path_431" data-name="Path 431" d="M72.889,49.909c.721-1.1.779-2.307.151-2.7s-1.723.173-2.437,1.269-.786,2.307-.159,2.7S72.168,51.02,72.889,49.909Z" transform="translate(-3227.531 1230.439)" fill="#4f3131"/>
    <path id="Path_432" data-name="Path 432" d="M85.427,51.577c-.3-.721-4.153-1.146-5.083-1.089s-1.06.786-1.017,1.55,4.24,2.668,5.567,1.853A2.163,2.163,0,0,0,85.427,51.577Z" transform="translate(-3230.125 1229.493)" fill="#963939"/>
    <path id="Path_433" data-name="Path 433" d="M75.882,45.7c-.26-1.2-1.868-5.408-2.668-5.675s-1.745.519-2.033,1.1c-.663,1.341,2.062,5.768,3.05,5.891S76.156,47,75.882,45.7Z" transform="translate(-3227.826 1232.423)" fill="#963939"/>
    <path id="Path_434" data-name="Path 434" d="M61.083,65s-2.055,4.1-1.067,5.379c1.082,1.384,4.636,4.189,5.927,4.132.094,0,3.339-3.23,3.432-3.245C67.7,70.682,61.083,65,61.083,65Z" transform="translate(-3224.666 1225.443)" fill="#4f3131"/>
    <path id="Path_435" data-name="Path 435" d="M63.377,77.458c.13-.216-.224-.671-.786-1.031s-1.132-.476-1.262-.267.216.671.786,1.031S63.247,77.638,63.377,77.458Z" transform="translate(-3225.1 1222.359)" fill="#ea7b59"/>
    <path id="Path_436" data-name="Path 436" d="M61.841,66.19s-1.781,3.562-.93,4.672,4.031,3.649,5.148,3.605c.079,0,2.884-2.812,2.992-2.827C67.6,71.1,61.841,66.19,61.841,66.19Z" transform="translate(-3224.926 1225.111)" fill="#fff5e1"/>
    <path id="Path_437" data-name="Path 437" d="M63.038,69.839,61.387,68.8l-1.017.9.339-2.12,1.046-1.392-.115,1.846Z" transform="translate(-3224.84 1225.111)" fill="#4f3131"/>
  </g>
</svg>
