<svg xmlns="http://www.w3.org/2000/svg" width="20.618" height="20.618" viewBox="0 0 20.618 20.618">
  <path id="Icon_material-my-location" data-name="Icon material-my-location" d="M11.809,8.06a3.749,3.749,0,1,0,3.749,3.749A3.748,3.748,0,0,0,11.809,8.06Zm8.378,2.812a8.429,8.429,0,0,0-7.441-7.441V1.5H10.872V3.431a8.429,8.429,0,0,0-7.441,7.441H1.5v1.874H3.431a8.429,8.429,0,0,0,7.441,7.441v1.931h1.874V20.187a8.429,8.429,0,0,0,7.441-7.441h1.931V10.872Zm-8.378,7.5a6.56,6.56,0,1,1,6.56-6.56A6.555,6.555,0,0,1,11.809,18.369Z" transform="translate(-1.5 -1.5)" fill="#e3e3e3"/>
</svg>
