<svg id="Component_38_2" data-name="Component 38 – 2" xmlns="http://www.w3.org/2000/svg" xmlns:xlink="http://www.w3.org/1999/xlink" width="62.082" height="101.228" viewBox="0 0 62.082 101.228">
  <defs>
    <linearGradient id="linear-gradient" x1="0.5" x2="0.5" y2="1" gradientUnits="objectBoundingBox">
      <stop offset="0" stop-color="#344bfc"/>
      <stop offset="1" stop-color="#1f77f0"/>
    </linearGradient>
    <filter id="Rectangle_537" x="8" y="49.175" width="53.082" height="52.052" filterUnits="userSpaceOnUse">
      <feOffset dy="3" input="SourceAlpha"/>
      <feGaussianBlur stdDeviation="5" result="blur"/>
      <feFlood flood-opacity="0.161"/>
      <feComposite operator="in" in2="blur"/>
      <feComposite in="SourceGraphic"/>
    </filter>
    <clipPath id="clip-path">
      <circle id="Ellipse_34" data-name="Ellipse 34" cx="23" cy="23" r="23" transform="translate(-321 3537)" fill="url(#linear-gradient)"/>
    </clipPath>
  </defs>
  <g transform="matrix(1, 0, 0, 1, 0, 0)" filter="url(#Rectangle_537)">
    <rect id="Rectangle_537-2" data-name="Rectangle 537" width="23.082" height="22.052" rx="11" transform="translate(23 61.18)" fill="#fff"/>
  </g>
  <g id="Group_215" data-name="Group 215" transform="translate(233.93 -3495.825)">
    <circle id="Ellipse_33" data-name="Ellipse 33" cx="23" cy="23" r="23" transform="translate(-223 3533)" fill="url(#linear-gradient)"/>
    <g id="Mask_Group_2" data-name="Mask Group 2" transform="translate(98 -4)" clip-path="url(#clip-path)">
      <path id="Path_626" data-name="Path 626" d="M48.522,85.532C72.8,84.327,65.356,73.112,63.167,72.251a16.788,16.788,0,0,0-3.339-1.384c-.411-.483-.858-.959-1.334-1.442.058-.858.094-1.651.087-2.365l2.3-6.129c-.389-.476-.786-.952-1.2-1.442A55.615,55.615,0,0,0,46.9,48.78a100.856,100.856,0,0,0-9.655,13.989h0v.05A26.946,26.946,0,0,0,30.07,64.7h-.663a.346.346,0,0,1-.087,0,4.866,4.866,0,0,0-.62.079C29.428,71.832,34,81.837,48.522,85.532Z" transform="translate(-373.161 3536.163) rotate(-31)" fill="#c77f7f" style="mix-blend-mode: multiply;isolation: isolate"/>
    </g>
    <path id="Path_352" data-name="Path 352" d="M47.546,38.052a17.988,17.988,0,0,1-.252-20.363s-.692-10.073,3.98-11.2,9.915,3.1,9.915,3.1S60.575-3.6,70.656.968c9.915,4.5,8.523,16.656,8.523,16.656s5.768-8.256,6.828,1.666-3.346,17.406-5.5,18.466c0,0-.721,5.48-13.606,11.645C53.884,55.638,47.546,38.052,47.546,38.052Z" transform="translate(-271.842 3540.201) rotate(-31)" fill="#842c35"/>
    <path id="Path_353" data-name="Path 353" d="M65.07,21.448c-2-7.434-3.129-14.111-1.673-19.368-2.459,2.69-2.214,8.076-2.214,8.076S55.913,5.923,51.277,7.07,47.3,18.282,47.3,18.282a17.988,17.988,0,0,0,.252,20.363s6.338,17.587,19.353,11.349c6.035-2.884,9.374-5.639,11.277-7.737C72.584,40.239,67.861,31.9,65.07,21.448Z" transform="translate(-272.143 3539.706) rotate(-31)" fill="#6d202b"/>
    <path id="Path_386" data-name="Path 386" d="M61.782,70.711,40.54,68.18c2.884,11.934,16.005,22.274,16.005,22.274S62.77,76.862,61.782,70.711Z" transform="translate(-280.117 3524.398) rotate(-31)" fill="#f4a264"/>
    <path id="Path_392" data-name="Path 392" d="M40.3,62.511A101.187,101.187,0,0,1,51.383,46.72L64.232,60.067l-3.057,8.141a10.282,10.282,0,0,1-10.564,4.478C43.357,71.438,40.3,62.511,40.3,62.511Z" transform="translate(-277.615 3528.467) rotate(-31)" fill="#ffb882"/>
    <path id="Path_423" data-name="Path 423" d="M63.557,30.054c-10.924,9.237-14.9,28.121-14.421,31.4.872,6.374,13.477,8.754,15.258,6.886s8.429-15.726,12.583-19.815,2.545-13.9-.678-17.565a9.085,9.085,0,0,0-12.741-.909Z" transform="translate(-277.01 3534.239) rotate(-31)" fill="#ffb882"/>
    <path id="Path_424" data-name="Path 424" d="M56.038,50.789c7.405-11.667,14.529-17.327,9.828-25.461S54.25,43.637,54.25,43.637Z" transform="translate(-277.654 3535.958) rotate(-31)" fill="#6d202b"/>
    <path id="Path_425" data-name="Path 425" d="M52.839,55.644c-2.791-2.055-2.747-12.554-.353-14.01s4.622.865,3.944,5.978S54.021,56.51,52.839,55.644Z" transform="translate(-279.313 3531.282) rotate(-31)" fill="#ffb882"/>
    <path id="Path_426" data-name="Path 426" d="M53.533,53.818c-1.586-1.168-1.565-7.153-.2-7.982s2.632.5,2.25,3.4S54.254,54.272,53.533,53.818Z" transform="translate(-280.328 3530.464) rotate(-31)" fill="#db5b3e"/>
    <path id="Path_427" data-name="Path 427" d="M53.411,56.591c-1.017-.721-1-4.564-.13-5.091s1.68.31,1.442,2.163S53.836,56.908,53.411,56.591Z" transform="translate(-281.229 3529.134) rotate(-31)" fill="#ffb882"/>
    <path id="Path_428" data-name="Path 428" d="M80.542,56c.721-1.1.764-2.307.13-2.7s-1.716.18-2.423,1.276-.764,2.307-.13,2.7S79.843,57.1,80.542,56Z" transform="translate(-287.48 3532.293) rotate(-31)" fill="#4f3131"/>
    <path id="Path_429" data-name="Path 429" d="M75.148,51.23c1.082-.144-.541,12.828-1.442,14.1-.425.635-4.326-2.668-4.326-2.668S74.954,51.251,75.148,51.23Z" transform="translate(-285.216 3531.567) rotate(-31)" fill="#ffb882"/>
    <path id="Path_430" data-name="Path 430" d="M75.464,52c0,2.841-1.017,12.193-1.745,13.253-.332.476-2.819-1.442-3.829-2.293l-.18.382s4.045,3.713,4.463,3.079C74.967,65.181,76.178,52.851,75.464,52Z" transform="translate(-285.405 3531.43) rotate(-31)" fill="#ea7b59"/>
    <path id="Path_431" data-name="Path 431" d="M72.889,49.909c.721-1.1.779-2.307.151-2.7s-1.723.173-2.437,1.269-.786,2.307-.159,2.7S72.168,51.02,72.889,49.909Z" transform="translate(-284.773 3532.648) rotate(-31)" fill="#4f3131"/>
    <path id="Path_432" data-name="Path 432" d="M85.427,51.577c-.3-.721-4.153-1.146-5.083-1.089s-1.06.786-1.017,1.55,4.24,2.668,5.567,1.853A2.163,2.163,0,0,0,85.427,51.577Z" transform="translate(-287.485 3533.173) rotate(-31)" fill="#963939"/>
    <path id="Path_433" data-name="Path 433" d="M75.882,45.7c-.26-1.2-1.868-5.408-2.668-5.675s-1.745.519-2.033,1.1c-.663,1.341,2.062,5.768,3.05,5.891S76.156,47,75.882,45.7Z" transform="translate(-284.005 3534.501) rotate(-31)" fill="#963939"/>
    <path id="Path_434" data-name="Path 434" d="M61.083,65s-2.055,4.1-1.067,5.379c1.082,1.384,4.636,4.189,5.927,4.132.094,0,3.339-3.23,3.432-3.245C67.7,70.682,61.083,65,61.083,65Z" transform="translate(-284.891 3526.89) rotate(-31)" fill="#4f3131"/>
    <path id="Path_435" data-name="Path 435" d="M63.377,77.458c.13-.216-.224-.671-.786-1.031s-1.132-.476-1.262-.267.216.671.786,1.031S63.247,77.638,63.377,77.458Z" transform="translate(-286.851 3524.47) rotate(-31)" fill="#ea7b59"/>
    <path id="Path_436" data-name="Path 436" d="M61.841,66.19s-1.781,3.562-.93,4.672,4.031,3.649,5.148,3.605c.079,0,2.884-2.812,2.992-2.827C67.6,71.1,61.841,66.19,61.841,66.19Z" transform="translate(-285.285 3526.74) rotate(-31)" fill="#fff5e1"/>
    <path id="Path_437" data-name="Path 437" d="M63.038,69.839,61.387,68.8l-1.017.9.339-2.12,1.046-1.392-.115,1.846Z" transform="translate(-285.211 3526.695) rotate(-31)" fill="#4f3131"/>
  </g>
</svg>
