<svg xmlns="http://www.w3.org/2000/svg" width="17.621" height="17.621" viewBox="0 0 17.621 17.621">
  <path id="Icon_awesome-phone-alt" data-name="Icon awesome-phone-alt" d="M17.118,12.452,13.264,10.8a.826.826,0,0,0-.964.237l-1.707,2.086a12.757,12.757,0,0,1-6.1-6.1L6.58,5.318a.824.824,0,0,0,.237-.964L5.166.5A.831.831,0,0,0,4.219.021L.64.847A.826.826,0,0,0,0,1.652,15.967,15.967,0,0,0,15.969,17.621a.826.826,0,0,0,.805-.64L17.6,13.4a.836.836,0,0,0-.482-.95Z" transform="translate(0 0)" fill="#fff"/>
</svg>
