<svg xmlns="http://www.w3.org/2000/svg" xmlns:xlink="http://www.w3.org/1999/xlink" width="122.121" height="164.999" viewBox="0 0 122.121 164.999">
  <defs>
    <linearGradient id="linear-gradient" x1="0.5" x2="0.5" y2="1" gradientUnits="objectBoundingBox">
      <stop offset="0" stop-color="#34599d"/>
      <stop offset="1" stop-color="#1a438f"/>
    </linearGradient>
    <linearGradient id="linear-gradient-2" x1="-0.253" y1="0.061" x2="0.961" y2="0.751" xlink:href="#linear-gradient"/>
    <linearGradient id="linear-gradient-4" x1="0.975" y1="0.947" x2="0.61" y2="0.256" xlink:href="#linear-gradient"/>
  </defs>
  <g id="Group_286" data-name="Group 286" transform="translate(-614.08 -161.001)">
    <rect id="Rectangle_116" data-name="Rectangle 116" width="11.906" height="35.441" rx="4.25" transform="translate(661.559 225.928)" fill="#f9e8cf"/>
    <path id="Path_172" data-name="Path 172" d="M242.086,219.032c-.6-.71-3.725-6.273-4.909-5.761s-1.536,4.609-1.536,4.609a29.58,29.58,0,0,0,4.02,3.072S242.674,219.736,242.086,219.032Z" transform="translate(388.622 20.396)" fill="#ffa33e"/>
    <path id="Path_173" data-name="Path 173" d="M311.8,151.732c7.354,1.715,7.623-8.961,4.935-11.246-4.205-3.559-12.533-3.6-16.322-1.28S307.769,150.791,311.8,151.732Z" transform="translate(365.587 47.613)" fill="#822a1c"/>
    <path id="Path_174" data-name="Path 174" d="M304.2,163.758c4.129,5.242,11.739-1.229,11.3-4.186-.64-4.57-6.734-9.076-10.971-9.633S301.971,160.955,304.2,163.758Z" transform="translate(364.767 43.186)" fill="#822a1c"/>
    <path id="Path_175" data-name="Path 175" d="M274.361,224.492c4.135-4.525,6.714-24.918,8.039-28.08,3.079-7.361,7.79-2.688,8.68,2.323.531,2.989-6.478,34.36-11.15,36.485-2.65,1.184-7.681.339-8.8-1.677C269.618,230.848,272.62,226.393,274.361,224.492Z" transform="translate(375.997 27.826)" fill="#f7deb0"/>
    <path id="Path_176" data-name="Path 176" d="M291.08,198.807c-.493-2.759-2.138-5.415-4.033-6.017a69.77,69.77,0,0,1-.736,11.374c-1.651,11.47-5.46,20.316-8.513,19.759-.742-.134-1.37-.819-1.875-1.92a10.276,10.276,0,0,1-1.562,2.56c-1.741,1.92-4.743,6.356-3.232,9.025,1.133,2.016,6.151,2.861,8.8,1.677C284.6,233.166,291.611,201.8,291.08,198.807Z" transform="translate(375.997 27.756)" fill="#f37b0a"/>
    <path id="Path_177" data-name="Path 177" d="M353.9,292.756H295.017s-19.542-10.331.064-30.545c9.012-9.288,15.048-12.334,6.67-31.658-3.981-9.166-7.271-14.939-7.271-14.939l22.793-23.523s-1.92,29.988,6.234,40.248c6.324,7.937,23.651,18.3,13.954,31.614-5.031,6.907-16.764,9.915-16.431,14.972,12.5-.3,23.926,10.933,32.9,12.718Z" transform="translate(370.37 28.008)" fill="#1a438f"/>
    <path id="Path_178" data-name="Path 178" d="M321.426,278.917c-.333-5.05,11.4-8.059,16.431-14.965,9.7-13.314-7.63-23.683-13.954-31.614-8.174-10.241-6.234-40.248-6.234-40.248l-22.793,23.523s3.29,5.761,7.271,14.94c.422.986.806,1.92,1.159,2.829,11.438-4.9,23.19,11.054,26.167,17.474s-13.442,23.728-25,29.072c-6.074,2.816-12.206,3.879-17.1,3.322,1.991,6.311,8.033,9.505,8.033,9.505H354.3l.051-1.114C345.384,289.856,333.927,278.623,321.426,278.917Z" transform="translate(369.948 28.775)" fill="#0c337c"/>
    <path id="Path_179" data-name="Path 179" d="M290.927,185.925c-6.081,10.568-2.394,35.352.064,37.016s25.808-.774,27.127-2.663.64-31.69-1.421-34.129-12.942-6.4-15.132-5.876S291.824,184.376,290.927,185.925Z" transform="translate(369.915 32.277)" fill="#1a438f"/>
    <path id="Path_180" data-name="Path 180" d="M318.236,186.669c-1.331-1.568-6.286-3.764-10.241-5,2.81,1.152,5.4,2.516,6.3,3.578,2.067,2.439,1.325,31,0,32.887-1.069,1.53-15.26,4.673-22.4,4.442a2.406,2.406,0,0,0,.64.883c2.458,1.664,26.723-.134,28.036-2.016S320.3,189.108,318.236,186.669Z" transform="translate(368.376 31.758)" fill="#1a438f"/>
    <path id="Path_182" data-name="Path 182" d="M308.57,210.154s3.258-27.389,1.728-27.984c-3.348-1.28-6.785-2.215-7.911-1.92-2.189.557-9.742,4.1-10.638,5.652a17.374,17.374,0,0,0-.96,1.991c-2.413,12.5.838,24.541.838,24.541Z" transform="translate(369.093 32.289)" fill="#f37b0a"/>
    <path id="Path_183" data-name="Path 183" d="M301.657,193.251l-4.807,2.919.39-11.31,2.131-1.459Z" transform="translate(366.591 31.135)" fill="#d96e0a"/>
    <path id="Path_184" data-name="Path 184" d="M310.55,191.684l6.266,3.252.3-12.949L312.8,180.63Z" transform="translate(361.66 32.133)" fill="#d96e0a"/>
    <path id="Path_185" data-name="Path 185" d="M292.735,213.859s-3.258-12.04-.845-24.541c.211-.518.448-1,.691-1.479a3.579,3.579,0,0,0-.832.826,17.373,17.373,0,0,0-.96,1.991c-2.413,12.5.839,24.541.839,24.541l16.943-2.291.141-1.21Z" transform="translate(369.094 29.537)" fill="#d96e0a"/>
    <path id="Path_186" data-name="Path 186" d="M331.784,204.652c0-8.123-.864-14.722-1.92-14.722s-4.34.5-4.385,8.622c-.07,14.274,4.282,21.18,5.351,21.18S331.784,212.781,331.784,204.652Z" transform="translate(356.287 28.785)" fill="#d96e0a"/>
    <path id="Path_187" data-name="Path 187" d="M341.114,226.517c-5.441-9.755-13-19.5-14.434-22.614-3.348-7.246.128-14.459,3.117-13.967s18.678,23.721,20.8,30.148S343.309,230.466,341.114,226.517Z" transform="translate(356.347 28.791)" fill="#f37b0a"/>
    <path id="Path_188" data-name="Path 188" d="M352.426,220.086c-2.119-6.4-17.8-29.661-20.8-30.148a2,2,0,0,0-1.21.2c5.588,7.515,12.488,18.5,13.845,22.614,1.312,3.988-1.8,7.041-4.877,7.8,1.229,1.952,2.439,3.949,3.559,5.959C345.148,230.468,354.538,226.519,352.426,220.086Z" transform="translate(354.509 28.789)" fill="#d96e0a"/>
    <path id="Path_189" data-name="Path 189" d="M241.73,222.972c6.574,10.12,14.811,28.8,18.946,28.669s6.26-12.469,4.519-19.036c-.64-2.407-23.395-11.746-23.395-11.746Z" transform="translate(386.43 17.652)" fill="#ffce55"/>
    <path id="Path_190" data-name="Path 190" d="M265,233.059c-.09-.333-.64-.807-1.434-1.363,1.383,4.308,0,8.289-2.163,8.8-3.2.755-12.43-9.71-19.951-18.377l-.262,1.376c6.574,10.113,15.157,28.752,19.292,28.6S266.742,239.626,265,233.059Z" transform="translate(386.624 17.199)" fill="#ffa33e"/>
    <path id="Path_193" data-name="Path 193" d="M298.708,170.728a78.086,78.086,0,0,0-2.618-18.806l10.056-5.473c-.474,9.147.333,14.843,3.514,22.582L303.22,190.91Z" transform="translate(366.865 44.434)" fill="#ffb882"/>
    <rect id="Rectangle_128" data-name="Rectangle 128" width="3.706" height="28.119" transform="translate(631.519 222.986) rotate(30.174)" fill="#725d61"/>
    <path id="Path_194" data-name="Path 194" d="M253.622,190.741l-3.021,5.2-4.967-2.861,3.021-5.2a6.1,6.1,0,0,0-4.679,3.079,5.4,5.4,0,1,0,9.288,5.4A6.1,6.1,0,0,0,253.622,190.741Z" transform="translate(385.938 29.521)" fill="#725d61"/>
    <path id="Path_195" data-name="Path 195" d="M220.147,239.4l1.965-3.386,4.007,2.33-1.965,3.367a4.986,4.986,0,0,0,3.8-2.516,4.361,4.361,0,1,0-7.5-4.359,4.967,4.967,0,0,0-.307,4.564Z" transform="translate(394.347 13.537)" fill="#725d61"/>
    <path id="Path_196" data-name="Path 196" d="M239.254,203.7l-9.044,15.567,1.728,4.442,9.044-15.573Z" transform="translate(390.576 23.828)" fill="#8e757b"/>
    <path id="Path_197" data-name="Path 197" d="M314.3,294.609s-1.363-.128-3.84,2.131c-7.041,6.433-19.074,21.488-12.3,28.3l3.245.077C290.712,319.144,314.3,294.609,314.3,294.609Z" transform="translate(366.841 -8.891)" fill="#08276b"/>
    <path id="Path_198" data-name="Path 198" d="M328.021,291.476c-.243.179-9.889,4.935-9.889,4.935L316.8,291.29l4.385,1.607Z" transform="translate(359.411 -7.697)" fill="#08276b"/>
    <ellipse id="Ellipse_11" data-name="Ellipse 11" cx="1.459" cy="2.445" rx="1.459" ry="2.445" transform="translate(677.081 244.17)" fill="#0f337c"/>
    <path id="Path_199" data-name="Path 199" d="M320.789,231.833c0-.941-.454-1.7-1.018-1.7s-1.011.762-1.011,1.7.454,1.7,1.011,1.7S320.789,232.767,320.789,231.833Z" transform="translate(358.705 14.316)" fill="#1a438f"/>
    <path id="Path_200" data-name="Path 200" d="M294.774,235.672c-.294-1.319-1.165-2.247-1.952-2.074s-1.191,1.383-.9,2.7,1.159,2.247,1.92,2.074S295.062,236.991,294.774,235.672Z" transform="translate(368.398 13.074)" fill="#0f337c"/>
    <path id="Path_201" data-name="Path 201" d="M294.254,235.723c-.166-.928-.749-1.594-1.28-1.5s-.864.935-.7,1.856.749,1.594,1.28,1.491S294.42,236.638,294.254,235.723Z" transform="translate(368.253 12.846)" fill="#1a438f"/>
    <path id="Path_202" data-name="Path 202" d="M312.74,191.041l4.41,3,.237-12.219-1.965-1.5Z" transform="translate(360.872 32.244)" fill="#f37b0a"/>
    <path id="Path_203" data-name="Path 203" d="M301.008,192.462l-3.668,2.548.358-10.766,1.357-1.773Z" transform="translate(366.415 31.469)" fill="#f37b0a"/>
    <path id="Path_204" data-name="Path 204" d="M314.873,171.922l-.077-.038-.685-.346-.3-.147-.858-.39-.461-.2-.525-.218-.9-.371-.384-.147h0l-.211-.077-.186-.07-.224-.09v-.128l-.742-.237-1.741-1.319-.051.192c-2.938-7.38-3.687-13.006-3.232-21.872l-5.338,2.906a40.81,40.81,0,0,0-3.757,6.644,72.622,72.622,0,0,1,1.658,14.031l-.1-.518L295.4,171.3v.09l-.262.186a9.5,9.5,0,0,0-3,2.215c-.179.314-.346.64-.506.967s-.314.672-.454,1.024h0c-.077.186-.147.378-.218.57.282,6.452,2.471,11.259,6.247,12.424C302.891,190.517,309.772,175.885,314.873,171.922Z" transform="translate(369.011 44.424)" fill="#c94343" opacity="0.6" style="mix-blend-mode: multiply;isolation: isolate"/>
    <path id="Path_205" data-name="Path 205" d="M277.18,136.087c-5.8-8.359.109-18.057,7.246-17.5s6.913,6.35,6.913,6.35Z" transform="translate(374.516 54.471)" fill="#822a1c"/>
    <path id="Path_206" data-name="Path 206" d="M288.691,157.67a27.347,27.347,0,0,1-11.157-24.323c.55-8.289,5.031-12.6,9.275-12.667s12.8,4.481,13.275,15.49C300.712,150.181,288.691,157.67,288.691,157.67Z" transform="translate(373.566 53.709)" fill="#ffb882"/>
    <path id="Path_207" data-name="Path 207" d="M303.275,146.069c-5.684-9.7-9.864-19.843-14.21-22.857s2.97-7.732,9.806-4.237c2.663,1.363,9.14,6.023,8.808,14.267S303.275,146.069,303.275,146.069Z" transform="translate(369.864 54.768)" fill="#822a1c"/>
    <path id="Path_208" data-name="Path 208" d="M308.578,154.456c-4.212-4.922-1.1-13.166,1.92-10.357S310.421,153.08,308.578,154.456Z" transform="translate(363.108 45.484)" fill="#ffb882"/>
    <path id="Path_209" data-name="Path 209" d="M309.451,152.908c-2.592-3-.678-8.123,1.178-6.369S310.584,152.063,309.451,152.908Z" transform="translate(362.51 44.529)" fill="#db5b3e"/>
    <path id="Path_210" data-name="Path 210" d="M308.979,155.036c-1.645-2.42.16-5.972,1.37-4.557S309.875,154.537,308.979,155.036Z" transform="translate(362.463 43.1)" fill="#ffb882"/>
    <path id="Path_211" data-name="Path 211" d="M280.282,147.639c-.179-1.427.429-2.663,1.363-2.752s1.831,1,2.016,2.432-.429,2.663-1.357,2.746S280.468,149.067,280.282,147.639Z" transform="translate(372.565 44.998)" fill="#66423b"/>
    <path id="Path_212" data-name="Path 212" d="M294.545,145.954c-.262-1.645.326-3.1,1.325-3.252s2.016,1.05,2.279,2.695-.326,3.1-1.325,3.252S294.814,147.593,294.545,145.954Z" transform="translate(367.443 45.787)" fill="#66423b"/>
    <path id="Path_213" data-name="Path 213" d="M299.168,144.574s-3.444-1.856-6.158-1.088c0,0,.5-1.4,2.612-1.28S299.168,144.574,299.168,144.574Z" transform="translate(367.973 45.963)" fill="#66423b"/>
    <path id="Path_214" data-name="Path 214" d="M278.18,146.047s2.618-1.984,5.172-1.594a2.471,2.471,0,0,0-2.56-.858C278.948,143.915,278.18,146.047,278.18,146.047Z" transform="translate(373.311 45.49)" fill="#66423b"/>
    <path id="Path_215" data-name="Path 215" d="M299.9,139l.051-.365a8.264,8.264,0,0,0-5.658-3.277v1.28A7.62,7.62,0,0,1,299.9,139Z" transform="translate(367.512 48.426)" fill="#7c4343"/>
    <path id="Path_216" data-name="Path 216" d="M276.863,140.272a7.069,7.069,0,0,1,5.121-2.989l-.243-1.223a7.175,7.175,0,0,0-5.121,3.8Z" transform="translate(373.872 48.174)" fill="#7c4343"/>
    <path id="Path_217" data-name="Path 217" d="M287.574,155.676a1.028,1.028,0,0,0,.032.134,1.92,1.92,0,0,0,3.514-.461,1.8,1.8,0,0,1-1,2.247,1.863,1.863,0,0,1-2.471-.813A1.613,1.613,0,0,1,287.574,155.676Z" transform="translate(369.953 41.23)" fill="#ea7b59"/>
    <path id="Path_218" data-name="Path 218" d="M294.091,162.54l-6.4.781s1.21,2.938,3.8,2.56C293.995,165.51,294.091,162.54,294.091,162.54Z" transform="translate(369.888 38.643)" fill="#491d2e"/>
    <path id="Path_219" data-name="Path 219" d="M293.954,162.81l-5.415.64s-.166,1.383,2.925,1.063C294.742,164.212,293.954,162.81,293.954,162.81Z" transform="translate(369.583 38.545)" fill="#ffebeb"/>
    <path id="Path_220" data-name="Path 220" d="M291.726,169.282c-.077-.371.557-.07,1.235-.154s1.159-.531,1.235-.16-.41.749-1.095.832S291.8,169.66,291.726,169.282Z" transform="translate(368.438 36.381)" fill="#ef8f6f"/>
    <path id="Path_222" data-name="Path 222" d="M277.8,115.834c1.114-6.913,5.121-15.72,8.135-16.053s15.362,4.231,16.949,7.246,1.338,17.5,1.338,17.5-9.921-9.364-16.949-9.032S277.8,115.834,277.8,115.834Z" transform="translate(373.448 61.238)" fill="url(#linear-gradient)"/>
    <path id="Path_223" data-name="Path 223" d="M296.618,108.556a20.112,20.112,0,0,0-.935-6.106c-3.872-1.632-8.142-2.848-9.748-2.669-3.008.333-7.041,9.14-8.135,16.053,0,0,2.451,0,9.473-.339a15.063,15.063,0,0,1,7.2,2.029A19.074,19.074,0,0,0,296.618,108.556Z" transform="translate(373.448 61.238)" fill="url(#linear-gradient-2)"/>
    <path id="Path_224" data-name="Path 224" d="M267.042,122.135c-12.162-4.295-16.847-9.358-15.784-10.613,1.69-1.991,11.227-2.317,19.683.16,6.785,1.991,17.282,11.521,17.282,11.521C279.294,121.188,269.788,119.85,267.042,122.135Z" transform="translate(383.053 57.58)" fill="url(#linear-gradient)"/>
    <path id="Path_225" data-name="Path 225" d="M270.983,113.308c4.7,1.376,11.2,6.4,14.722,9.345.851.179,1.709.358,2.56.55,0,0-10.523-9.563-17.282-11.521-8.455-2.477-17.993-2.151-19.683-.16-.25.294-.166.8.237,1.453C253.7,111.139,262.835,110.915,270.983,113.308Z" transform="translate(383.036 57.58)" fill="url(#linear-gradient-4)"/>
    <path id="Path_226" data-name="Path 226" d="M243.776,220.477a58.8,58.8,0,0,0-3.783-4.807s-2.362,2.439-2.324,3.309,2.324-1.178,2.324-1.178-1.331,2.56,2.131,3.783C243.584,222.09,243.776,220.477,243.776,220.477Z" transform="translate(387.891 19.52)" fill="#ffce55"/>
    <path id="Path_227" data-name="Path 227" d="M238.229,215.912c-.4.435-1.338-1.338-1.024-2.048s.64-.787.947-.122S238.619,215.484,238.229,215.912Z" transform="translate(388.081 20.379)" fill="#ffce55"/>
    <path id="Path_228" data-name="Path 228" d="M236.809,217.7c-.39.429-1.338-1.344-1.024-2.055s.64-.787.947-.115A2.455,2.455,0,0,1,236.809,217.7Z" transform="translate(388.592 19.738)" fill="#ffce55"/>
    <path id="Path_229" data-name="Path 229" d="M235.889,219.6c-.4.435-1.338-1.338-1.024-2.048s.64-.787.947-.115S236.279,219.174,235.889,219.6Z" transform="translate(388.923 19.051)" fill="#ffce55"/>
    <path id="Path_231" data-name="Path 231" d="M335.812,287.35c-2.349,1.831-7.009,3.841-7.751,4.353s.064,1.037,2.464.262,2.938-1.543,3.841-.941S337,286.448,335.812,287.35Z" transform="translate(355.454 -6.24)" fill="#ffce55"/>
    <rect id="Rectangle_419" data-name="Rectangle 419" width="122.121" height="56.705" rx="25" transform="translate(614.08 269.295)" fill="#fff"/>
    <g id="Group_227" data-name="Group 227" transform="translate(686.567 248.518)" opacity="0.463">
      <path id="Path_191" data-name="Path 191" d="M344.7,271.769c5.607-10.683,19.036-29.3,16.879-32.83s-13.186-6.132-17.237,2.528c-1.056,2.253-1.747,31-1.747,31Z" transform="translate(-335.379 -235.628)" fill="#eaeaea"/>
      <path id="Path_192" data-name="Path 192" d="M361.78,238.938c-1.991-3.277-11.63-5.761-16.252.826,3.565-.506,7.131.6,8.443,2.247,2.279,2.848-5.946,18.838-10.811,30.333l1.741-.576C350.508,261.085,363.937,242.471,361.78,238.938Z" transform="translate(-335.585 -235.626)" fill="#eaeaea"/>
      <path id="Path_230" data-name="Path 230" d="M341.764,283.269c-.909,2.893.544,6.842-.64,8.4-.909,1.223-6.036,1.459-6.574.64s5.281-9.064,5.281-9.064Z" transform="translate(-332.473 -252.767)" fill="#eaeaea"/>
      <path id="Path_232" data-name="Path 232" d="M336.084,294.485c-1.2,1.581-3.975,5.338-4.673,5.121s3.06-5.9,3.06-5.9Z" transform="translate(-331.325 -256.532)" fill="#eaeaea"/>
      <path id="Path_233" data-name="Path 233" d="M339.939,295.56c-.6,1.626-1.959,5.486-2.682,5.345s.928-5.914.928-5.914Z" transform="translate(-333.394 -256.992)" fill="#eaeaea"/>
      <path id="Path_234" data-name="Path 234" d="M344.221,294.986c-.141,2.183-.9,5.524-1.645,5.383s-.218-6.03-.218-6.03Z" transform="translate(-335.231 -256.758)" fill="#eaeaea"/>
    </g>
    <g id="Group_226" data-name="Group 226" transform="translate(685.508 247.965)">
      <path id="Path_191-2" data-name="Path 191" d="M344.7,271.769c5.607-10.683,19.036-29.3,16.879-32.83s-13.186-6.132-17.237,2.528c-1.056,2.253-1.747,31-1.747,31Z" transform="translate(-335.379 -235.628)" fill="#ffce55"/>
      <path id="Path_192-2" data-name="Path 192" d="M361.78,238.938c-1.991-3.277-11.63-5.761-16.252.826,3.565-.506,7.131.6,8.443,2.247,2.279,2.848-5.946,18.838-10.811,30.333l1.741-.576C350.508,261.085,363.937,242.471,361.78,238.938Z" transform="translate(-335.585 -235.626)" fill="#ffa33e"/>
      <path id="Path_230-2" data-name="Path 230" d="M341.764,283.269c-.909,2.893.544,6.842-.64,8.4-.909,1.223-6.036,1.459-6.574.64s5.281-9.064,5.281-9.064Z" transform="translate(-332.473 -252.767)" fill="#ffce55"/>
      <path id="Path_232-2" data-name="Path 232" d="M336.084,294.485c-1.2,1.581-3.975,5.338-4.673,5.121s3.06-5.9,3.06-5.9Z" transform="translate(-331.325 -256.532)" fill="#ffce55"/>
      <path id="Path_233-2" data-name="Path 233" d="M339.939,295.56c-.6,1.626-1.959,5.486-2.682,5.345s.928-5.914.928-5.914Z" transform="translate(-333.394 -256.992)" fill="#ffce55"/>
      <path id="Path_234-2" data-name="Path 234" d="M344.221,294.986c-.141,2.183-.9,5.524-1.645,5.383s-.218-6.03-.218-6.03Z" transform="translate(-335.231 -256.758)" fill="#ffce55"/>
    </g>
  </g>
</svg>
